<svg width="165" height="73" viewBox="0 0 165 73" fill="none" xmlns="http://www.w3.org/2000/svg">
<path d="M12.7052 71.9134C11.6004 72.1868 10.3646 72.5 8.37713 72.5C4.49324 72.5 0 70.5353 0 65.017C0 59.9371 3.55359 57.4086 8.36004 57.4086C9.8464 57.4086 11.2872 57.7446 12.6824 58.1604L12.3692 61.3153C11.1163 60.6262 9.90335 60.2902 8.56506 60.2902C5.80875 60.2902 4.00917 62.2948 4.00917 65.0113C4.00917 67.8758 6.03654 69.607 8.87827 69.607C10.1539 69.607 11.4466 69.271 12.5116 68.8553L12.6995 71.9077L12.7052 71.9134Z" fill="black"/>
<path d="M20.6723 72.2494C20.6495 71.6629 20.5869 71.0991 20.5869 70.5353H20.547C19.6928 71.8907 18.6449 72.5 17.1016 72.5C14.949 72.5 13.0241 71.4351 13.0241 69.0717C13.0241 65.7459 16.6404 65.353 18.6449 65.353C19.2486 65.353 19.9206 65.4156 20.399 65.501C20.3762 64.0204 19.2714 63.6217 17.916 63.6217C16.703 63.6217 15.49 63.8495 14.4478 64.4361L14.3852 61.8905C15.7235 61.3495 17.1244 61.116 18.7304 61.116C21.5095 61.116 23.9127 62.3062 23.9127 65.6263V69.6811C23.9127 70.541 23.9525 71.3952 24.1234 72.2551H20.678L20.6723 72.2494ZM18.0868 69.9943C19.5106 69.9943 20.4047 68.7015 20.4047 67.4259C19.9263 67.4088 19.3796 67.3632 18.8158 67.3632C17.5401 67.3632 16.5378 67.7619 16.5378 68.804C16.5378 69.5615 17.2041 69.9943 18.0868 69.9943Z" fill="black"/>
<path d="M24.7441 61.3609H28.1724V63.3655H28.2123C28.964 61.7994 30.4675 61.1103 32.1816 61.1103C35.1486 61.1103 36.3388 63.2003 36.3388 65.4555V72.2494H32.5745V66.9817C32.5745 64.9315 31.8627 64.2425 30.8376 64.2425C29.2943 64.2425 28.497 65.3131 28.497 67.648V72.2494H24.7384V61.3609H24.7441Z" fill="black"/>
<path d="M44.5052 72.2494C44.4825 71.6629 44.4198 71.0991 44.4198 70.5353H44.38C43.5257 71.8907 42.4779 72.5 40.9289 72.5C38.7762 72.5 36.8571 71.4351 36.8571 69.0717C36.8571 65.7459 40.4733 65.353 42.4779 65.353C43.0815 65.353 43.7535 65.4156 44.2319 65.501C44.2091 64.0204 43.1043 63.6217 41.7432 63.6217C40.5302 63.6217 39.3172 63.8495 38.2751 64.4361L38.2124 61.8905C39.5507 61.3495 40.9517 61.116 42.5576 61.116C45.3367 61.116 47.7399 62.3062 47.7399 65.6263V69.6811C47.7399 70.541 47.7798 71.3952 47.9506 72.2551H44.4995L44.5052 72.2494ZM41.9084 69.9943C43.3321 69.9943 44.2262 68.7015 44.2262 67.4259C43.7478 67.4088 43.2011 67.3632 42.6373 67.3632C41.3617 67.3632 40.3594 67.7619 40.3594 68.804C40.3594 69.5615 41.0257 69.9943 41.9084 69.9943Z" fill="black"/>
<path d="M60.6331 72.2494H57.1649V70.3075H57.125C56.6467 71.5148 55.1205 72.5 53.3835 72.5C50.1432 72.5 48.4119 69.8234 48.4119 66.6058C48.4119 63.9293 50.0634 61.1103 53.0703 61.1103C54.5738 61.1103 55.8494 61.509 56.8118 62.7618H56.8517V56.5772H60.6331V72.2494ZM54.5738 69.6184C55.8266 69.6184 56.8745 68.4282 56.8745 66.8393C56.8745 65.2505 55.9576 63.9976 54.5738 63.9976C53.1102 63.9976 52.2958 65.2505 52.2958 66.697C52.2958 68.4282 53.1557 69.6241 54.5738 69.6241V69.6184Z" fill="black"/>
<path d="M65.1548 59.5841H61.3962V56.8221H65.1548V59.5841ZM61.3962 61.3609H65.1548V72.2495H61.3962V61.3609Z" fill="black"/>
<path d="M73.3668 72.2494C73.344 71.6629 73.2814 71.0991 73.2814 70.5353H73.2415C72.3816 71.8907 71.3394 72.5 69.7961 72.5C67.6435 72.5 65.7186 71.4351 65.7186 69.0717C65.7186 65.7459 69.3348 65.353 71.3394 65.353C71.9488 65.353 72.6151 65.4156 73.0934 65.501C73.0707 64.0204 71.9659 63.6217 70.6048 63.6217C69.3918 63.6217 68.1788 63.8495 67.1366 64.4361L67.074 61.8905C68.4123 61.3495 69.8132 61.116 71.4191 61.116C74.1982 61.116 76.6015 62.3062 76.6015 65.6263V69.6811C76.6015 70.541 76.6413 71.3952 76.8122 72.2551H73.3668V72.2494ZM70.7756 69.9943C72.1993 69.9943 73.0934 68.7015 73.0934 67.4259C72.6094 67.4088 72.0684 67.3632 71.5046 67.3632C70.2289 67.3632 69.2266 67.7619 69.2266 68.804C69.2266 69.5615 69.8929 69.9943 70.7699 69.9943H70.7756Z" fill="black"/>
<path d="M77.4443 61.3609H80.8726V63.3655H80.9124C81.6642 61.7994 83.1676 61.1103 84.8817 61.1103C87.8488 61.1103 89.039 63.2003 89.039 65.4555V72.2494H85.2804V66.9817C85.2804 64.9315 84.5685 64.2425 83.5435 64.2425C82.0002 64.2425 81.2029 65.3131 81.2029 67.648V72.2494H77.4443V61.3609Z" fill="black"/>
<path d="M94.8933 57.6592H99.8421L104.774 67.5626H104.819L104.757 57.6592H108.31V72.2494H103.481L98.3842 62.2778H98.3387L98.464 72.2494H94.8933V57.6592Z" fill="black"/>
<path d="M116.454 72.2494C116.431 71.6629 116.369 71.0991 116.369 70.5353H116.329C115.474 71.8907 114.427 72.5 112.883 72.5C110.731 72.5 108.806 71.4351 108.806 69.0717C108.806 65.7459 112.422 65.353 114.427 65.353C115.03 65.353 115.702 65.4156 116.181 65.501C116.158 64.0204 115.053 63.6217 113.692 63.6217C112.479 63.6217 111.272 63.8495 110.224 64.4361L110.161 61.8905C111.499 61.3495 112.9 61.116 114.506 61.116C117.285 61.116 119.689 62.3062 119.689 65.6263V69.6811C119.689 70.541 119.734 71.3952 119.899 72.2551H116.454V72.2494ZM113.863 69.9943C115.281 69.9943 116.181 68.7015 116.181 67.4259C115.697 67.4088 115.156 67.3632 114.592 67.3632C113.316 67.3632 112.314 67.7619 112.314 68.804C112.314 69.5615 112.98 69.9943 113.863 69.9943Z" fill="black"/>
<path d="M119.922 61.3609H122.137V58.9178L125.839 57.7674V61.3609H128.476V63.9919H125.839V68.0068C125.839 69.3223 126.152 69.9886 127.343 69.9886C127.718 69.9886 128.117 69.9032 128.493 69.8405L128.618 72.2836C127.906 72.369 127.195 72.4943 126.255 72.4943C122.895 72.4943 122.075 71.0137 122.075 68.4168V63.9862H119.922V61.3552V61.3609Z" fill="black"/>
<path d="M140.782 72.2494H137.354V70.2392H137.314C136.563 71.8052 135.059 72.4943 133.345 72.4943C130.378 72.4943 129.188 70.4043 129.188 68.1492V61.3552H132.952V66.6229C132.952 68.6731 133.664 69.3622 134.683 69.3622C136.232 69.3622 137.024 68.2972 137.024 65.9566V61.3552H140.782V72.2438V72.2494Z" fill="black"/>
<path d="M149.33 64.3677C148.909 64.2425 148.493 64.2425 148.055 64.2425C146.301 64.2425 145.316 65.5181 145.316 67.648V72.2494H141.557V61.3609H144.985V63.3655H145.025C145.674 61.9873 146.614 61.1103 148.243 61.1103C148.681 61.1103 149.137 61.1729 149.513 61.2356L149.325 64.3677H149.33Z" fill="black"/>
<path d="M156.392 72.2494C156.375 71.6629 156.307 71.0991 156.307 70.5353H156.267C155.412 71.8907 154.365 72.5 152.821 72.5C150.669 72.5 148.744 71.4351 148.744 69.0717C148.744 65.7459 152.36 65.353 154.365 65.353C154.974 65.353 155.64 65.4156 156.119 65.501C156.096 64.0204 154.991 63.6217 153.63 63.6217C152.417 63.6217 151.21 63.8495 150.162 64.4361L150.099 61.8905C151.437 61.3495 152.838 61.116 154.444 61.116C157.223 61.116 159.627 62.3062 159.627 65.6263V69.6811C159.627 70.541 159.667 71.3952 159.832 72.2551H156.386L156.392 72.2494ZM153.795 69.9943C155.219 69.9943 156.113 68.7015 156.113 67.4259C155.635 67.4088 155.088 67.3632 154.524 67.3632C153.248 67.3632 152.246 67.7619 152.246 68.804C152.246 69.5615 152.912 69.9943 153.789 69.9943H153.795Z" fill="black"/>
<path d="M164.074 56.5772H160.316V72.2494H164.074V56.5772Z" fill="black"/>
<path d="M95.2691 39.5211C95.9411 39.3446 96.4878 39.1168 96.9947 38.6726C97.1484 37.9152 96.3796 35.7397 95.8842 34.1623C97.4218 34.3331 98.3842 34.9652 99.5574 34.7488C100.07 34.0654 100.269 33.2853 100.639 32.5108L104.068 36.2466C104.278 36.4915 104.797 36.6623 104.996 36.0017L103.441 28.1599C104.694 28.6553 105.127 29.6178 106.642 29.6861C107.593 28.1599 108.288 26.366 109.227 24.5038C109.865 26.2236 110.617 27.8524 111.511 29.7658C113.031 29.7488 113.664 28.8034 114.933 28.3535L112.849 36.1327C113.031 36.8047 113.555 36.6452 113.772 36.4117L117.303 32.7898C117.644 33.5814 117.844 34.5096 118.328 35.2101C119.489 35.4664 120.617 34.7261 121.995 34.6065C121.448 36.1669 120.606 38.3138 120.737 39.0769C121.226 39.5382 121.79 39.7831 122.428 39.9824C120.292 41.4403 117.223 44.2137 115.566 45.5634C115.514 45.9791 115.588 46.3037 115.702 46.6283H128.202C128.202 46.6283 116.141 0.5 84.9159 0.5H58.5374C83.9079 6.07526 94.9901 46.6283 94.9901 46.6283H101.664C101.887 46.2467 102.074 45.8823 102.029 45.3413C100.417 43.9346 97.3535 41.0587 95.2634 39.5268L95.2691 39.5211Z" fill="#007CC3"/>
<path d="M36.4186 23.5641C36.4186 35.8536 45.8493 45.6032 57.8711 46.6283H79.6881C54.7617 40.4266 52.3528 14.6346 69.0785 5.16408C65.8211 2.96018 62.4099 1.37701 58.5431 0.5C46.2023 1.19477 36.4243 11.0469 36.4243 23.5641H36.4186Z" fill="black"/>
</svg>
