<svg width="184" height="27" viewBox="0 0 184 27" fill="none" xmlns="http://www.w3.org/2000/svg">
<path d="M104.015 9.26123L100.467 18.6885V19.2708H103.299V21.4855H100.467V23.6969H95.7657V21.4855H93.0444V19.2708H95.7657V18.6885L91.7196 9.26123H96.2894L98.1741 14.4242L99.933 9.26123" fill="#343133"/>
<path d="M29.6567 5.80164H34.9202V10.8554L38.4268 5.80164H44.1938L39.8012 11.6379L43.4704 16.5221H45.0071V20.2193H40.7283V18.6772H38.8711L34.9202 13.4855V18.6772H29.6567V5.80164Z" fill="#127CC1"/>
<path d="M71.1475 5.60205H78.0926L80.7727 13.5577L83.4411 5.60205H90.3629V18.6771H86.0514V8.70582L82.707 18.6771H78.8034L75.4707 8.70582V18.6771H71.1475V5.60205Z" fill="#343133"/>
<path d="M105.636 9.26123H109.973V12.3162H112.815V9.26123H117.152V18.4506H112.815V14.5697H109.973V18.4506H105.636V9.26123Z" fill="#343133"/>
<path d="M143.734 9.26123V18.4506H140.139V13.5605L136.514 18.4506H132.778V9.26123H136.373V14.1513L139.998 9.26123H143.734Z" fill="#343133"/>
<path d="M134.489 5.0177H136.095C136.177 5.44582 136.402 5.77302 136.768 5.9993C137.143 6.22559 137.64 6.33874 138.262 6.33872C138.883 6.33874 139.377 6.22559 139.744 5.9993C140.118 5.77302 140.346 5.44582 140.429 5.0177H142.034C141.989 5.8984 141.641 6.5742 140.99 7.04511C140.339 7.50992 139.429 7.74233 138.262 7.74231C137.094 7.74233 136.185 7.50992 135.533 7.04511C134.882 6.5742 134.534 5.8984 134.489 5.0177Z" fill="#343133"/>
<path d="M146.385 18.4506V5.7605H158.014V9.02869H151.713V18.4506H146.385Z" fill="#127CC1"/>
<path d="M174.38 12.7237C174.999 12.7254 175.612 12.7739 176.185 12.7307C178.374 12.5586 178.342 11.0303 176.133 10.9054C175.029 10.9069 173.555 11.2673 172.811 11.5587V9.43362C174.351 9.1729 176.196 8.97764 177.823 9.0109C179.857 9.0989 182.601 9.18648 182.826 11.452C182.826 12.535 182.093 13.216 180.627 13.495C182.28 13.8287 183.107 14.6108 183.107 15.8416C183.003 18.2566 180.132 18.49 178.02 18.6779C176.161 18.8011 174.556 18.6258 172.786 18.2292V15.5243C173.991 15.9069 175.293 16.4591 176.616 16.27C178.727 15.9144 178.602 14.7689 176.515 14.5071C175.804 14.4572 175.018 14.537 174.38 14.537V12.7237Z" fill="#127CC1"/>
<path d="M165.098 9.03427C163.532 9.01988 161.984 9.2283 160.453 9.50209V11.7449C161.701 11.1747 163.068 11.0365 164.443 10.9881C165.56 10.9077 167.213 11.2762 167.215 12.5704H165.098C163.157 12.5704 161.729 12.824 160.818 13.3272C159.914 13.8304 159.462 14.6162 159.462 15.6938C159.462 16.5799 159.836 17.2961 160.559 17.854C161.289 18.4065 162.227 18.6933 163.392 18.6933C164.256 18.6933 164.983 18.5597 165.586 18.3081C166.188 18.051 166.733 17.6414 167.215 17.0835V18.4457H171.328V13.2033C171.328 11.732 170.876 10.6759 169.972 10.0249C169.075 9.36857 167.127 9.03428 165.098 9.03427ZM167.215 14.3179C167.292 15.0422 166.854 15.4877 166.385 16.0497C165.257 16.678 164.256 16.4348 164.138 15.4115C164.285 14.2094 165.543 14.1743 167.215 14.3179Z" fill="#127CC1"/>
<path d="M60.8125 12.7237C61.431 12.7254 62.0448 12.7739 62.6171 12.7307C64.8065 12.5586 64.7747 11.0303 62.5656 10.9054C61.4613 10.9069 59.9872 11.2673 59.2436 11.5587V9.43362C60.7833 9.1729 62.6283 8.97764 64.2552 9.0109C66.2892 9.0989 69.0335 9.18648 69.2584 11.452C69.2584 12.535 68.5254 13.216 67.0593 13.495C68.7128 13.8287 69.5396 14.6108 69.5396 15.8416C69.4359 18.2566 66.5647 18.49 64.4522 18.6779C62.5936 18.8011 60.9883 18.6258 59.2189 18.2292V15.5243C60.423 15.9069 61.7252 16.4591 63.0485 16.27C65.1593 15.9144 65.0343 14.7689 62.947 14.5071C62.2367 14.4572 61.45 14.537 60.8125 14.537V12.7237Z" fill="#127CC1"/>
<path d="M51.5289 9.03427C49.9629 9.01988 48.4145 9.2283 46.8832 9.50209V11.7449C48.1313 11.1747 49.4983 11.0365 50.8739 10.9881C51.9902 10.9077 53.6437 11.2762 53.6461 12.5704H51.5289C49.5875 12.5704 48.1592 12.824 47.2488 13.3272C46.345 13.8304 45.8931 14.6162 45.8931 15.6938C45.8931 16.5799 46.2668 17.2961 46.9898 17.854C47.7195 18.4065 48.6581 18.6933 49.8229 18.6933C50.6865 18.6933 51.4138 18.5597 52.0163 18.3081C52.6188 18.051 53.1641 17.6414 53.6461 17.0835V18.4457H57.7587V13.2033C57.7587 11.732 57.3068 10.6759 56.403 10.0249C55.506 9.36857 53.5573 9.03428 51.5289 9.03427ZM53.6461 14.3179C53.7229 15.0422 53.2843 15.4877 52.8158 16.0497C51.6872 16.678 50.6862 16.4348 50.5688 15.4115C50.7157 14.2094 51.9734 14.1743 53.6461 14.3179Z" fill="#127CC1"/>
<path d="M29.2179 21.4096H30.1714L31.3755 23.4607V21.4096H32.1849V24.4002H31.2313L30.0273 22.349V24.4002H29.2179V21.4096ZM35.5195 23.8553H34.1846L33.9739 24.4002H33.1158L34.342 21.4096H35.3598L36.5861 24.4002H35.7279L35.5195 23.8553ZM34.3974 23.3005H35.3044L34.852 22.1106L34.3974 23.3005ZM37.066 21.3969H40.1172V21.9798H39.0195V24.3876H38.1658V21.9798H37.066V21.3969ZM40.9426 21.3969H41.7964V24.3876H40.9426V21.3969ZM44.4872 21.9558C44.227 21.9558 44.0252 22.0426 43.8818 22.2162C43.7384 22.3898 43.6667 22.6342 43.6667 22.9493C43.6667 23.2632 43.7384 23.5069 43.8818 23.6805C44.0252 23.8541 44.227 23.9409 44.4872 23.9409C44.7488 23.9409 44.9514 23.8541 45.0948 23.6805C45.2382 23.5069 45.3099 23.2632 45.3099 22.9493C45.3099 22.6342 45.2382 22.3898 45.0948 22.2162C44.9514 22.0426 44.7488 21.9558 44.4872 21.9558ZM44.4872 21.3969C45.0194 21.3969 45.4362 21.5345 45.7378 21.8096C46.0394 22.0847 46.1902 22.4646 46.1902 22.9493C46.1902 23.4327 46.0394 23.812 45.7378 24.0871C45.4362 24.3622 45.0194 24.4997 44.4872 24.4997C43.9565 24.4997 43.5396 24.3622 43.2365 24.0871C42.935 23.812 42.7842 23.4327 42.7842 22.9493C42.7842 22.4646 42.935 22.0847 43.2365 21.8096C43.5396 21.5345 43.9565 21.3969 44.4872 21.3969ZM47.437 21.3969H48.3905L49.5946 23.4481V21.3969H50.404V24.3876H49.4504L48.2464 22.3364V24.3876H47.437V21.3969ZM53.71 23.8427H52.3751L52.1645 24.3876H51.3063L52.5325 21.3969H53.5504L54.7766 24.3876H53.9185L53.71 23.8427ZM52.588 23.2879H53.4949L53.0426 22.098L52.588 23.2879ZM55.7206 21.3969H56.5743V23.8047H58.0733V24.3876H55.7206V21.3969ZM65.8118 24.2359C65.6551 24.3094 65.4918 24.3648 65.3218 24.4022C65.1518 24.4396 64.9744 24.4583 64.7896 24.4583C64.2382 24.4583 63.8013 24.3194 63.4791 24.0416C63.1568 23.7625 62.9956 23.3846 62.9956 22.9079C62.9956 22.4298 63.1568 22.0519 63.4791 21.7741C63.8013 21.495 64.2382 21.3555 64.7896 21.3555C64.9744 21.3555 65.1518 21.3742 65.3218 21.4116C65.4918 21.4489 65.6551 21.5044 65.8118 21.5778V22.1968C65.6536 22.0993 65.4977 22.0278 65.3439 21.9824C65.1902 21.937 65.0283 21.9143 64.8583 21.9143C64.5538 21.9143 64.3143 22.0025 64.1399 22.1787C63.9654 22.355 63.8782 22.5981 63.8782 22.9079C63.8782 23.2163 63.9654 23.4587 64.1399 23.635C64.3143 23.8113 64.5538 23.8994 64.8583 23.8994C65.0283 23.8994 65.1902 23.8767 65.3439 23.8313C65.4977 23.7859 65.6536 23.7145 65.8118 23.617V24.2359ZM68.3279 21.9558C68.0677 21.9558 67.8659 22.0426 67.7226 22.2162C67.5792 22.3898 67.5075 22.6342 67.5075 22.9493C67.5075 23.2632 67.5792 23.5069 67.7226 23.6805C67.8659 23.8541 68.0677 23.9409 68.3279 23.9409C68.5896 23.9409 68.7921 23.8541 68.9355 23.6805C69.0789 23.5069 69.1506 23.2632 69.1506 22.9493C69.1506 22.6342 69.0789 22.3898 68.9355 22.2162C68.7921 22.0426 68.5896 21.9558 68.3279 21.9558ZM68.3279 21.3969C68.8601 21.3969 69.277 21.5345 69.5786 21.8096C69.8801 22.0847 70.0309 22.4646 70.0309 22.9493C70.0309 23.4327 69.8801 23.812 69.5786 24.0871C69.277 24.3622 68.8601 24.4997 68.3279 24.4997C67.7972 24.4997 67.3803 24.3622 67.0773 24.0871C66.7757 23.812 66.6249 23.4327 66.6249 22.9493C66.6249 22.4646 66.7757 22.0847 67.0773 21.8096C67.3803 21.5345 67.7972 21.3969 68.3279 21.3969ZM71.1856 21.3969H72.2721L73.026 22.9974L73.7844 21.3969H74.8687V24.3876H74.0616V22.2002L73.2988 23.8127H72.7577L71.9949 22.2002V24.3876H71.1856V21.3969ZM76.0517 21.3969H77.4686C77.8899 21.3969 78.213 21.4817 78.4377 21.6513C78.6638 21.8196 78.7769 22.06 78.7769 22.3724C78.7769 22.6863 78.6638 22.928 78.4377 23.0976C78.213 23.2658 77.8899 23.35 77.4686 23.35H76.9054V24.3876H76.0517V21.3969ZM76.9054 21.9558V22.7911H77.3777C77.5433 22.7911 77.6712 22.755 77.7613 22.6829C77.8515 22.6095 77.8966 22.506 77.8966 22.3724C77.8966 22.2389 77.8515 22.1361 77.7613 22.064C77.6712 21.9919 77.5433 21.9558 77.3777 21.9558H76.9054ZM81.7714 23.8553H80.4365L80.2258 24.4002H79.3676L80.5939 21.4096H81.6117L82.838 24.4002H81.9798L81.7714 23.8553ZM80.6493 23.3005H81.5563L81.1039 22.1106L80.6493 23.3005ZM83.7622 21.4096H84.7157L85.9198 23.4607V21.4096H86.7292V24.4002H85.7757L84.5716 22.349V24.4002H83.7622V21.4096ZM87.5936 21.4096H88.5271L89.281 22.4752L90.035 21.4096H90.9707L89.709 23.1402V24.4002H88.8553V23.1402L87.5936 21.4096Z" fill="#343133"/>
<path d="M109.381 21.3968L108.12 23.1275V23.5121H108.612V23.8967H108.12V24.3874H107.266V23.8967H106.776V23.5121H107.266V23.1275L106.004 21.3968H106.938L107.692 22.4624L108.446 21.3968H109.381ZM110.345 24.3874V23.8045C110.72 23.7671 110.946 23.6383 111.021 23.4179C111.096 23.1962 111.134 22.7108 111.134 21.9617V21.3968H113.491V24.3874H112.638V21.9797H111.988V22.162C111.988 22.8938 111.916 23.4293 111.773 23.7685C111.629 24.1063 111.153 24.3126 110.345 24.3874ZM119.099 21.3968H122.15V21.9797H121.052V24.3874H120.198V21.9797H119.099V21.3968ZM124.596 23.8626C124.775 23.8626 124.904 23.8326 124.984 23.7725C125.069 23.707 125.112 23.6122 125.112 23.488C125.112 23.3665 125.069 23.2737 124.984 23.2096C124.905 23.1495 124.776 23.1195 124.596 23.1195H124.095V23.8626H124.596ZM125.966 23.464C125.966 23.7818 125.858 24.0115 125.642 24.153C125.404 24.3093 125.076 24.3874 124.658 24.3874H123.241V21.3968H124.095V22.5366H124.658C125.076 22.5366 125.404 22.6147 125.642 22.7709C125.858 22.9125 125.966 23.1435 125.966 23.464ZM126.259 21.3968H127.113V24.3874H126.259V21.3968ZM128.941 21.3968H129.795V22.6307L131.129 21.3968H132.096L130.781 22.6087L131.715 23.8045H132.169V24.3874V25.0304H131.318V24.3874H131.229L130.234 23.1134L129.795 23.5181V24.3874H128.941V21.3968ZM135.614 21.3968H136.468V22.6307L137.802 21.3968H138.769L137.454 22.6087L138.842 24.3874H137.902L136.907 23.1134L136.468 23.5181V24.3874H135.614V21.3968ZM142.002 21.9557C141.742 21.9557 141.54 22.0425 141.396 22.2161C141.253 22.3897 141.181 22.634 141.181 22.9492C141.181 23.263 141.253 23.5067 141.396 23.6803C141.54 23.8539 141.742 23.9407 142.002 23.9407C142.263 23.9407 142.466 23.8539 142.609 23.6803C142.753 23.5067 142.824 23.263 142.824 22.9492C142.824 22.634 142.753 22.3897 142.609 22.2161C142.466 22.0425 142.263 21.9557 142.002 21.9557ZM142.002 21.3968C142.534 21.3968 142.951 21.5343 143.252 21.8094C143.554 22.0845 143.705 22.4644 143.705 22.9492C143.705 23.4326 143.554 23.8119 143.252 24.0869C142.951 24.362 142.534 24.4996 142.002 24.4996C141.471 24.4996 141.054 24.362 140.751 24.0869C140.45 23.8119 140.299 23.4326 140.299 22.9492C140.299 22.4644 140.45 22.0845 140.751 21.8094C141.054 21.5343 141.471 21.3968 142.002 21.3968ZM145.749 21.3968H146.835L147.589 22.9973L148.347 21.3968H149.432V24.3874H148.625V22.2L147.862 23.8125H147.321L146.558 22.2V24.3874H145.749V21.3968ZM154.253 21.3968V24.3874H153.4V21.9797H152.14V24.3874H151.286V21.3968H154.253ZM158.212 23.8426H156.877L156.666 24.3874H155.808L157.034 21.3968H158.052L159.278 24.3874H158.42L158.212 23.8426ZM157.09 23.2877H157.996L157.544 22.0979L157.09 23.2877ZM160.874 21.3968H161.728V22.5366H162.987V21.3968H163.841V24.3874H162.987V23.1195H161.728V24.3874H160.874V21.3968ZM168.661 21.3968V24.3874H167.851V22.3362L166.647 24.3874H165.694V21.3968H166.503V23.448L167.707 21.3968H168.661ZM171.396 22.3362C171.396 22.4738 171.434 22.5726 171.511 22.6327C171.589 22.6928 171.718 22.7228 171.897 22.7228H172.323V21.9557H171.897C171.718 21.9557 171.589 21.985 171.511 22.0438C171.434 22.1025 171.396 22.2 171.396 22.3362ZM170.387 24.3874L171.212 23.1174C171.099 23.06 170.96 22.9599 170.793 22.817C170.625 22.6728 170.542 22.5012 170.542 22.3022C170.542 22.0031 170.643 21.7774 170.846 21.6251C171.05 21.4729 171.37 21.3968 171.806 21.3968H173.176V24.3874H172.323V23.2557H172.032L171.296 24.3874H170.387ZM177.527 24.2212C177.37 24.2946 177.207 24.35 177.037 24.3874C176.867 24.4248 176.689 24.4435 176.505 24.4435C175.953 24.4435 175.516 24.3046 175.194 24.0269C174.872 23.7478 174.711 23.3698 174.711 22.8931C174.711 22.415 174.872 22.0371 175.194 21.7593C175.516 21.4803 175.953 21.3407 176.505 21.3407C176.689 21.3407 176.867 21.3594 177.037 21.3968C177.207 21.4342 177.37 21.4896 177.527 21.563V22.182C177.369 22.0845 177.213 22.0131 177.059 21.9677C176.905 21.9223 176.743 21.8996 176.573 21.8996C176.269 21.8996 176.029 21.9877 175.855 22.164C175.68 22.3402 175.593 22.5833 175.593 22.8931C175.593 23.2016 175.68 23.444 175.855 23.6202C176.029 23.7965 176.269 23.8846 176.573 23.8846C176.743 23.8846 176.905 23.8619 177.059 23.8165C177.213 23.7711 177.369 23.6997 177.527 23.6022V24.2212ZM180.388 23.8626C180.567 23.8626 180.696 23.8326 180.776 23.7725C180.862 23.707 180.905 23.6122 180.905 23.488C180.905 23.3665 180.862 23.2737 180.776 23.2096C180.698 23.1495 180.569 23.1195 180.388 23.1195H179.887V23.8626H180.388ZM181.759 23.464C181.759 23.7818 181.651 24.0115 181.435 24.153C181.197 24.3093 180.869 24.3874 180.45 24.3874H179.033V21.3968H179.887V22.5366H180.45C180.869 22.5366 181.197 22.6147 181.435 22.7709C181.651 22.9125 181.759 23.1435 181.759 23.464ZM182.051 21.3968H182.905V24.3874H182.051V21.3968Z" fill="#343133"/>
<path d="M115.018 21.3969H118.069V21.9798H116.972V24.3875H116.118V21.9798H115.018V21.3969Z" fill="#343133"/>
<path d="M124.642 9.03427C123.076 9.01988 121.528 9.2283 119.996 9.50209V11.7449C121.244 11.1747 122.611 11.0365 123.987 10.9881C125.103 10.9077 126.757 11.2762 126.759 12.5704H124.642C122.701 12.5704 121.272 12.824 120.362 13.3272C119.458 13.8304 119.006 14.6162 119.006 15.6938C119.006 16.5799 119.38 17.2961 120.103 17.854C120.833 18.4065 121.771 18.6933 122.936 18.6933C123.8 18.6933 124.527 18.5597 125.129 18.3081C125.732 18.051 126.277 17.6414 126.759 17.0835V18.4457H130.872V13.2033C130.872 11.732 130.42 10.6759 129.516 10.0249C128.619 9.36857 126.67 9.03428 124.642 9.03427ZM126.759 14.3179C126.836 15.0422 126.397 15.4877 125.929 16.0497C124.8 16.678 123.799 16.4348 123.682 15.4115C123.829 14.2094 125.086 14.1743 126.759 14.3179Z" fill="#343133"/>
<path d="M12.2731 4.64539C12.4243 5.98823 12.2895 7.58722 11.6835 8.88177L11.7924 8.93913C11.8313 8.93857 11.8712 8.93913 11.9103 8.93913C15.8544 8.93913 19.0492 11.8251 19.0492 15.3879C19.0492 16.2631 18.8548 17.1013 18.505 17.8626L22.1425 20.8862C23.2032 19.2779 23.8115 17.3948 23.8115 15.3879C23.8115 9.56161 18.6762 4.82059 12.2731 4.64539ZM7.3657 5.44841C3.04462 7.06228 2.90274e-07 10.9037 0 15.3879C0 19.6254 2.72191 23.288 6.66723 25.0407V19.7718C6.2095 19.3251 5.81952 18.8223 5.51521 18.2723C4.70723 16.9824 4.17783 14.9607 4.18176 12.8232C4.18671 10.1334 4.95471 7.30267 7.3657 5.44841Z" fill="#343133"/>
<path fill-rule="evenodd" clip-rule="evenodd" d="M7.39258 18.6792C4.97638 16.2111 4.85915 13.4536 5.52875 11.8746C6.79064 8.89869 11.3641 7.53852 12.0524 3.09131C12.2343 14.1405 6.19004 10.3832 7.39258 18.6792Z" fill="#127CC1"/>
<path fill-rule="evenodd" clip-rule="evenodd" d="M4.84415 11.8389C4.45775 4.99557 10.7301 5.84935 11.5427 0C12.6062 7.03861 5.66174 7.80002 4.84415 11.8389Z" fill="#36C0EF"/>
<path d="M8.93154 20.6645C8.93157 20.755 8.91185 20.8447 8.87349 20.9284C8.83513 21.0121 8.77889 21.0881 8.70798 21.1522C8.63707 21.2162 8.55287 21.267 8.46021 21.3017C8.36754 21.3364 8.26822 21.3542 8.16792 21.3542C8.06761 21.3542 7.96829 21.3364 7.87562 21.3017C7.78296 21.267 7.69877 21.2162 7.62785 21.1522C7.55694 21.0881 7.5007 21.0121 7.46234 20.9284C7.42398 20.8447 7.40426 20.755 7.4043 20.6645C7.40426 20.5739 7.42398 20.4842 7.46234 20.4005C7.5007 20.3169 7.55694 20.2408 7.62785 20.1768C7.69877 20.1127 7.78296 20.0619 7.87562 20.0272C7.96829 19.9926 8.06761 19.9747 8.16792 19.9747C8.26822 19.9747 8.36754 19.9926 8.46021 20.0272C8.55287 20.0619 8.63707 20.1127 8.70798 20.1768C8.77889 20.2408 8.83513 20.3169 8.87349 20.4005C8.91185 20.4842 8.93157 20.5739 8.93154 20.6645V20.6645Z" fill="#127CC1"/>
<path d="M8.93154 22.4145C8.93157 22.505 8.91185 22.5947 8.87349 22.6784C8.83513 22.7621 8.77889 22.8381 8.70798 22.9022C8.63707 22.9662 8.55287 23.017 8.46021 23.0517C8.36754 23.0864 8.26822 23.1042 8.16792 23.1042C8.06761 23.1042 7.96829 23.0864 7.87562 23.0517C7.78296 23.017 7.69877 22.9662 7.62785 22.9022C7.55694 22.8381 7.5007 22.7621 7.46234 22.6784C7.42398 22.5947 7.40426 22.505 7.4043 22.4145C7.40426 22.3239 7.42398 22.2342 7.46234 22.1505C7.5007 22.0669 7.55694 21.9908 7.62785 21.9268C7.69877 21.8627 7.78296 21.8119 7.87562 21.7772C7.96829 21.7426 8.06761 21.7247 8.16792 21.7247C8.26822 21.7247 8.36754 21.7426 8.46021 21.7772C8.55287 21.8119 8.63707 21.8627 8.70798 21.9268C8.77889 21.9908 8.83513 22.0669 8.87349 22.1505C8.91185 22.2342 8.93157 22.3239 8.93154 22.4145V22.4145Z" fill="#127CC1"/>
<path d="M8.93154 24.1646C8.93157 24.2552 8.91185 24.3448 8.87349 24.4285C8.83513 24.5122 8.77889 24.5882 8.70798 24.6523C8.63707 24.7163 8.55287 24.7671 8.46021 24.8018C8.36754 24.8365 8.26822 24.8543 8.16792 24.8543C8.06761 24.8543 7.96829 24.8365 7.87562 24.8018C7.78296 24.7671 7.69877 24.7163 7.62785 24.6523C7.55694 24.5882 7.5007 24.5122 7.46234 24.4285C7.42398 24.3448 7.40426 24.2552 7.4043 24.1646C7.40426 24.074 7.42398 23.9843 7.46234 23.9007C7.5007 23.817 7.55694 23.7409 7.62785 23.6769C7.69877 23.6128 7.78296 23.562 7.87562 23.5274C7.96829 23.4927 8.06761 23.4749 8.16792 23.4749C8.26822 23.4749 8.36754 23.4927 8.46021 23.5274C8.55287 23.562 8.63707 23.6128 8.70798 23.6769C8.77889 23.7409 8.83513 23.817 8.87349 23.9007C8.91185 23.9843 8.93157 24.074 8.93154 24.1646V24.1646Z" fill="#127CC1"/>
<path d="M10.8712 20.6645C10.8712 20.755 10.8515 20.8447 10.8131 20.9284C10.7748 21.0121 10.7185 21.0881 10.6476 21.1522C10.5767 21.2162 10.4925 21.267 10.3998 21.3017C10.3072 21.3364 10.2079 21.3542 10.1076 21.3542C10.0072 21.3542 9.90793 21.3364 9.81526 21.3017C9.7226 21.267 9.6384 21.2162 9.56749 21.1522C9.49658 21.0881 9.44034 21.0121 9.40198 20.9284C9.36362 20.8447 9.34389 20.755 9.34393 20.6645C9.34389 20.5739 9.36362 20.4842 9.40198 20.4005C9.44034 20.3169 9.49658 20.2408 9.56749 20.1768C9.6384 20.1127 9.7226 20.0619 9.81526 20.0272C9.90793 19.9926 10.0072 19.9747 10.1076 19.9747C10.2079 19.9747 10.3072 19.9926 10.3998 20.0272C10.4925 20.0619 10.5767 20.1127 10.6476 20.1768C10.7185 20.2408 10.7748 20.3169 10.8131 20.4005C10.8515 20.4842 10.8712 20.5739 10.8712 20.6645V20.6645Z" fill="#127CC1"/>
<path d="M10.8701 22.4145C10.8702 22.505 10.8504 22.5947 10.8121 22.6784C10.7737 22.7621 10.7175 22.8381 10.6466 22.9022C10.5757 22.9662 10.4915 23.017 10.3988 23.0517C10.3061 23.0864 10.2068 23.1042 10.1065 23.1042C10.0062 23.1042 9.90689 23.0864 9.81422 23.0517C9.72156 23.017 9.63736 22.9662 9.56645 22.9022C9.49554 22.8381 9.4393 22.7621 9.40094 22.6784C9.36258 22.5947 9.34286 22.505 9.3429 22.4145C9.34286 22.3239 9.36258 22.2342 9.40094 22.1505C9.4393 22.0669 9.49554 21.9908 9.56645 21.9268C9.63736 21.8627 9.72156 21.8119 9.81422 21.7772C9.90689 21.7426 10.0062 21.7247 10.1065 21.7247C10.2068 21.7247 10.3061 21.7426 10.3988 21.7772C10.4915 21.8119 10.5757 21.8627 10.6466 21.9268C10.7175 21.9908 10.7737 22.0669 10.8121 22.1505C10.8504 22.2342 10.8702 22.3239 10.8701 22.4145V22.4145Z" fill="#127CC1"/>
<path d="M10.8701 24.1646C10.8702 24.2552 10.8504 24.3448 10.8121 24.4285C10.7737 24.5122 10.7175 24.5882 10.6466 24.6523C10.5757 24.7163 10.4915 24.7671 10.3988 24.8018C10.3061 24.8365 10.2068 24.8543 10.1065 24.8543C10.0062 24.8543 9.90689 24.8365 9.81422 24.8018C9.72156 24.7671 9.63736 24.7163 9.56645 24.6523C9.49554 24.5882 9.4393 24.5122 9.40094 24.4285C9.36258 24.3448 9.34286 24.2552 9.3429 24.1646C9.34286 24.074 9.36258 23.9843 9.40094 23.9007C9.4393 23.817 9.49554 23.7409 9.56645 23.6769C9.63736 23.6128 9.72156 23.562 9.81422 23.5274C9.90689 23.4927 10.0062 23.4749 10.1065 23.4749C10.2068 23.4749 10.3061 23.4927 10.3988 23.5274C10.4915 23.562 10.5757 23.6128 10.6466 23.6769C10.7175 23.7409 10.7737 23.817 10.8121 23.9007C10.8504 23.9843 10.8702 24.074 10.8701 24.1646V24.1646Z" fill="#127CC1"/>
<path d="M12.806 20.6645C12.8061 20.755 12.7864 20.8447 12.748 20.9284C12.7096 21.0121 12.6534 21.0881 12.5825 21.1522C12.5116 21.2162 12.4274 21.267 12.3347 21.3017C12.2421 21.3364 12.1427 21.3542 12.0424 21.3542C11.9421 21.3542 11.8428 21.3364 11.7501 21.3017C11.6575 21.267 11.5733 21.2162 11.5024 21.1522C11.4315 21.0881 11.3752 21.0121 11.3369 20.9284C11.2985 20.8447 11.2788 20.755 11.2788 20.6645C11.2788 20.5739 11.2985 20.4842 11.3369 20.4005C11.3752 20.3169 11.4315 20.2408 11.5024 20.1768C11.5733 20.1127 11.6575 20.0619 11.7501 20.0272C11.8428 19.9926 11.9421 19.9747 12.0424 19.9747C12.1427 19.9747 12.2421 19.9926 12.3347 20.0272C12.4274 20.0619 12.5116 20.1127 12.5825 20.1768C12.6534 20.2408 12.7096 20.3169 12.748 20.4005C12.7864 20.4842 12.8061 20.5739 12.806 20.6645V20.6645Z" fill="#127CC1"/>
<path d="M12.806 22.4145C12.8061 22.505 12.7864 22.5947 12.748 22.6784C12.7096 22.7621 12.6534 22.8381 12.5825 22.9022C12.5116 22.9662 12.4274 23.017 12.3347 23.0517C12.2421 23.0864 12.1427 23.1042 12.0424 23.1042C11.9421 23.1042 11.8428 23.0864 11.7501 23.0517C11.6575 23.017 11.5733 22.9662 11.5024 22.9022C11.4315 22.8381 11.3752 22.7621 11.3369 22.6784C11.2985 22.5947 11.2788 22.505 11.2788 22.4145C11.2788 22.3239 11.2985 22.2342 11.3369 22.1505C11.3752 22.0669 11.4315 21.9908 11.5024 21.9268C11.5733 21.8627 11.6575 21.8119 11.7501 21.7772C11.8428 21.7426 11.9421 21.7247 12.0424 21.7247C12.1427 21.7247 12.2421 21.7426 12.3347 21.7772C12.4274 21.8119 12.5116 21.8627 12.5825 21.9268C12.6534 21.9908 12.7096 22.0669 12.748 22.1505C12.7864 22.2342 12.8061 22.3239 12.806 22.4145V22.4145Z" fill="#127CC1"/>
<path d="M12.806 24.1646C12.8061 24.2552 12.7864 24.3448 12.748 24.4285C12.7096 24.5122 12.6534 24.5882 12.5825 24.6523C12.5116 24.7163 12.4274 24.7671 12.3347 24.8018C12.2421 24.8365 12.1427 24.8543 12.0424 24.8543C11.9421 24.8543 11.8428 24.8365 11.7501 24.8018C11.6575 24.7671 11.5733 24.7163 11.5024 24.6523C11.4315 24.5882 11.3752 24.5122 11.3369 24.4285C11.2985 24.3448 11.2788 24.2552 11.2788 24.1646C11.2788 24.074 11.2985 23.9843 11.3369 23.9007C11.3752 23.817 11.4315 23.7409 11.5024 23.6769C11.5733 23.6128 11.6575 23.562 11.7501 23.5274C11.8428 23.4927 11.9421 23.4749 12.0424 23.4749C12.1427 23.4749 12.2421 23.4927 12.3347 23.5274C12.4274 23.562 12.5116 23.6128 12.5825 23.6769C12.6534 23.7409 12.7096 23.817 12.748 23.9007C12.7864 23.9843 12.8061 24.074 12.806 24.1646V24.1646Z" fill="#127CC1"/>
<path d="M14.7446 20.6645C14.7447 20.755 14.725 20.8447 14.6866 20.9284C14.6482 21.0121 14.592 21.0881 14.5211 21.1522C14.4502 21.2162 14.366 21.267 14.2733 21.3017C14.1807 21.3364 14.0813 21.3542 13.981 21.3542C13.8807 21.3542 13.7814 21.3364 13.6887 21.3017C13.5961 21.267 13.5119 21.2162 13.441 21.1522C13.3701 21.0881 13.3138 21.0121 13.2755 20.9284C13.2371 20.8447 13.2174 20.755 13.2174 20.6645C13.2174 20.5739 13.2371 20.4842 13.2755 20.4005C13.3138 20.3169 13.3701 20.2408 13.441 20.1768C13.5119 20.1127 13.5961 20.0619 13.6887 20.0272C13.7814 19.9926 13.8807 19.9747 13.981 19.9747C14.0813 19.9747 14.1807 19.9926 14.2733 20.0272C14.366 20.0619 14.4502 20.1127 14.5211 20.1768C14.592 20.2408 14.6482 20.3169 14.6866 20.4005C14.725 20.4842 14.7447 20.5739 14.7446 20.6645V20.6645Z" fill="#127CC1"/>
<path d="M14.7446 22.4145C14.7447 22.505 14.725 22.5947 14.6866 22.6784C14.6482 22.7621 14.592 22.8381 14.5211 22.9022C14.4502 22.9662 14.366 23.017 14.2733 23.0517C14.1807 23.0864 14.0813 23.1042 13.981 23.1042C13.8807 23.1042 13.7814 23.0864 13.6887 23.0517C13.5961 23.017 13.5119 22.9662 13.441 22.9022C13.3701 22.8381 13.3138 22.7621 13.2755 22.6784C13.2371 22.5947 13.2174 22.505 13.2174 22.4145C13.2174 22.3239 13.2371 22.2342 13.2755 22.1505C13.3138 22.0669 13.3701 21.9908 13.441 21.9268C13.5119 21.8627 13.5961 21.8119 13.6887 21.7772C13.7814 21.7426 13.8807 21.7247 13.981 21.7247C14.0813 21.7247 14.1807 21.7426 14.2733 21.7772C14.366 21.8119 14.4502 21.8627 14.5211 21.9268C14.592 21.9908 14.6482 22.0669 14.6866 22.1505C14.725 22.2342 14.7447 22.3239 14.7446 22.4145V22.4145Z" fill="#127CC1"/>
<path d="M14.7446 24.1646C14.7447 24.2552 14.725 24.3448 14.6866 24.4285C14.6482 24.5122 14.592 24.5882 14.5211 24.6523C14.4502 24.7163 14.366 24.7671 14.2733 24.8018C14.1807 24.8365 14.0813 24.8543 13.981 24.8543C13.8807 24.8543 13.7814 24.8365 13.6887 24.8018C13.5961 24.7671 13.5119 24.7163 13.441 24.6523C13.3701 24.5882 13.3138 24.5122 13.2755 24.4285C13.2371 24.3448 13.2174 24.2552 13.2174 24.1646C13.2174 24.074 13.2371 23.9843 13.2755 23.9007C13.3138 23.817 13.3701 23.7409 13.441 23.6769C13.5119 23.6128 13.5961 23.562 13.6887 23.5274C13.7814 23.4927 13.8807 23.4749 13.981 23.4749C14.0813 23.4749 14.1807 23.4927 14.2733 23.5274C14.366 23.562 14.4502 23.6128 14.5211 23.6769C14.592 23.7409 14.6482 23.817 14.6866 23.9007C14.725 23.9843 14.7447 24.074 14.7446 24.1646V24.1646Z" fill="#127CC1"/>
<path d="M16.682 20.6645C16.6821 20.755 16.6623 20.8447 16.624 20.9284C16.5856 21.0121 16.5294 21.0881 16.4585 21.1522C16.3876 21.2162 16.3034 21.267 16.2107 21.3017C16.118 21.3364 16.0187 21.3542 15.9184 21.3542C15.8181 21.3542 15.7188 21.3364 15.6261 21.3017C15.5334 21.267 15.4493 21.2162 15.3783 21.1522C15.3074 21.0881 15.2512 21.0121 15.2128 20.9284C15.1745 20.8447 15.1547 20.755 15.1548 20.6645C15.1547 20.5739 15.1745 20.4842 15.2128 20.4005C15.2512 20.3169 15.3074 20.2408 15.3783 20.1768C15.4493 20.1127 15.5334 20.0619 15.6261 20.0272C15.7188 19.9926 15.8181 19.9747 15.9184 19.9747C16.0187 19.9747 16.118 19.9926 16.2107 20.0272C16.3034 20.0619 16.3876 20.1127 16.4585 20.1768C16.5294 20.2408 16.5856 20.3169 16.624 20.4005C16.6623 20.4842 16.6821 20.5739 16.682 20.6645V20.6645Z" fill="#127CC1"/>
<path d="M16.6822 22.4145C16.6822 22.505 16.6625 22.5947 16.6242 22.6784C16.5858 22.7621 16.5296 22.8381 16.4587 22.9022C16.3877 22.9662 16.3035 23.017 16.2109 23.0517C16.1182 23.0864 16.0189 23.1042 15.9186 23.1042C15.8183 23.1042 15.719 23.0864 15.6263 23.0517C15.5336 23.017 15.4494 22.9662 15.3785 22.9022C15.3076 22.8381 15.2514 22.7621 15.213 22.6784C15.1747 22.5947 15.1549 22.505 15.155 22.4145C15.1549 22.3239 15.1747 22.2342 15.213 22.1505C15.2514 22.0669 15.3076 21.9908 15.3785 21.9268C15.4494 21.8627 15.5336 21.8119 15.6263 21.7772C15.719 21.7426 15.8183 21.7247 15.9186 21.7247C16.0189 21.7247 16.1182 21.7426 16.2109 21.7772C16.3035 21.8119 16.3877 21.8627 16.4587 21.9268C16.5296 21.9908 16.5858 22.0669 16.6242 22.1505C16.6625 22.2342 16.6822 22.3239 16.6822 22.4145V22.4145Z" fill="#127CC1"/>
<path d="M16.6822 24.1646C16.6822 24.2552 16.6625 24.3448 16.6242 24.4285C16.5858 24.5122 16.5296 24.5882 16.4587 24.6523C16.3877 24.7163 16.3035 24.7671 16.2109 24.8018C16.1182 24.8365 16.0189 24.8543 15.9186 24.8543C15.8183 24.8543 15.719 24.8365 15.6263 24.8018C15.5336 24.7671 15.4494 24.7163 15.3785 24.6523C15.3076 24.5882 15.2514 24.5122 15.213 24.4285C15.1747 24.3448 15.1549 24.2552 15.155 24.1646C15.1549 24.074 15.1747 23.9843 15.213 23.9007C15.2514 23.817 15.3076 23.7409 15.3785 23.6769C15.4494 23.6128 15.5336 23.562 15.6263 23.5274C15.719 23.4927 15.8183 23.4749 15.9186 23.4749C16.0189 23.4749 16.1182 23.4927 16.2109 23.5274C16.3035 23.562 16.3877 23.6128 16.4587 23.6769C16.5296 23.7409 16.5858 23.817 16.6242 23.9007C16.6625 23.9843 16.6822 24.074 16.6822 24.1646V24.1646Z" fill="#127CC1"/>
<path d="M18.6189 20.6645C18.619 20.755 18.5992 20.8447 18.5609 20.9284C18.5225 21.0121 18.4663 21.0881 18.3954 21.1522C18.3244 21.2162 18.2403 21.267 18.1476 21.3017C18.0549 21.3364 17.9556 21.3542 17.8553 21.3542C17.755 21.3542 17.6557 21.3364 17.563 21.3017C17.4703 21.267 17.3861 21.2162 17.3152 21.1522C17.2443 21.0881 17.1881 21.0121 17.1497 20.9284C17.1114 20.8447 17.0916 20.755 17.0917 20.6645C17.0916 20.5739 17.1114 20.4842 17.1497 20.4005C17.1881 20.3169 17.2443 20.2408 17.3152 20.1768C17.3861 20.1127 17.4703 20.0619 17.563 20.0272C17.6557 19.9926 17.755 19.9747 17.8553 19.9747C17.9556 19.9747 18.0549 19.9926 18.1476 20.0272C18.2403 20.0619 18.3244 20.1127 18.3954 20.1768C18.4663 20.2408 18.5225 20.3169 18.5609 20.4005C18.5992 20.4842 18.619 20.5739 18.6189 20.6645V20.6645Z" fill="#127CC1"/>
<path d="M18.6189 22.4145C18.619 22.505 18.5992 22.5947 18.5609 22.6784C18.5225 22.7621 18.4663 22.8381 18.3954 22.9022C18.3244 22.9662 18.2403 23.017 18.1476 23.0517C18.0549 23.0864 17.9556 23.1042 17.8553 23.1042C17.755 23.1042 17.6557 23.0864 17.563 23.0517C17.4703 23.017 17.3861 22.9662 17.3152 22.9022C17.2443 22.8381 17.1881 22.7621 17.1497 22.6784C17.1114 22.5947 17.0916 22.505 17.0917 22.4145C17.0916 22.3239 17.1114 22.2342 17.1497 22.1505C17.1881 22.0669 17.2443 21.9908 17.3152 21.9268C17.3861 21.8627 17.4703 21.8119 17.563 21.7772C17.6557 21.7426 17.755 21.7247 17.8553 21.7247C17.9556 21.7247 18.0549 21.7426 18.1476 21.7772C18.2403 21.8119 18.3244 21.8627 18.3954 21.9268C18.4663 21.9908 18.5225 22.0669 18.5609 22.1505C18.5992 22.2342 18.619 22.3239 18.6189 22.4145V22.4145Z" fill="#127CC1"/>
<path d="M18.6189 24.1646C18.619 24.2552 18.5992 24.3448 18.5609 24.4285C18.5225 24.5122 18.4663 24.5882 18.3954 24.6523C18.3244 24.7163 18.2403 24.7671 18.1476 24.8018C18.0549 24.8365 17.9556 24.8543 17.8553 24.8543C17.755 24.8543 17.6557 24.8365 17.563 24.8018C17.4703 24.7671 17.3861 24.7163 17.3152 24.6523C17.2443 24.5882 17.1881 24.5122 17.1497 24.4285C17.1114 24.3448 17.0916 24.2552 17.0917 24.1646C17.0916 24.074 17.1114 23.9843 17.1497 23.9007C17.1881 23.817 17.2443 23.7409 17.3152 23.6769C17.3861 23.6128 17.4703 23.562 17.563 23.5274C17.6557 23.4927 17.755 23.4749 17.8553 23.4749C17.9556 23.4749 18.0549 23.4927 18.1476 23.5274C18.2403 23.562 18.3244 23.6128 18.3954 23.6769C18.4663 23.7409 18.5225 23.817 18.5609 23.9007C18.5992 23.9843 18.619 24.074 18.6189 24.1646V24.1646Z" fill="#127CC1"/>
<path d="M18.6189 18.9145C18.619 19.005 18.5992 19.0947 18.5609 19.1784C18.5225 19.2621 18.4663 19.3381 18.3954 19.4022C18.3244 19.4662 18.2403 19.517 18.1476 19.5517C18.0549 19.5864 17.9556 19.6042 17.8553 19.6042C17.755 19.6042 17.6557 19.5864 17.563 19.5517C17.4703 19.517 17.3861 19.4662 17.3152 19.4022C17.2443 19.3381 17.1881 19.2621 17.1497 19.1784C17.1114 19.0947 17.0916 19.005 17.0917 18.9145C17.0916 18.8239 17.1114 18.7342 17.1497 18.6505C17.1881 18.5669 17.2443 18.4908 17.3152 18.4268C17.3861 18.3627 17.4703 18.3119 17.563 18.2772C17.6557 18.2426 17.755 18.2247 17.8553 18.2247C17.9556 18.2247 18.0549 18.2426 18.1476 18.2772C18.2403 18.3119 18.3244 18.3627 18.3954 18.4268C18.4663 18.4908 18.5225 18.5669 18.5609 18.6505C18.5992 18.7342 18.619 18.8239 18.6189 18.9145V18.9145Z" fill="#127CC1"/>
<path d="M18.6189 25.9147C18.619 26.0053 18.5992 26.095 18.5609 26.1786C18.5225 26.2623 18.4663 26.3384 18.3954 26.4024C18.3244 26.4665 18.2403 26.5173 18.1476 26.5519C18.0549 26.5866 17.9556 26.6044 17.8553 26.6044C17.755 26.6044 17.6557 26.5866 17.563 26.5519C17.4703 26.5173 17.3861 26.4665 17.3152 26.4024C17.2443 26.3384 17.1881 26.2623 17.1497 26.1786C17.1114 26.095 17.0916 26.0053 17.0917 25.9147C17.0916 25.8241 17.1114 25.7345 17.1497 25.6508C17.1881 25.5671 17.2443 25.4911 17.3152 25.427C17.3861 25.363 17.4703 25.3121 17.563 25.2775C17.6557 25.2428 17.755 25.225 17.8553 25.225C17.9556 25.225 18.0549 25.2428 18.1476 25.2775C18.2403 25.3121 18.3244 25.363 18.3954 25.427C18.4663 25.4911 18.5225 25.5671 18.5609 25.6508C18.5992 25.7345 18.619 25.8241 18.6189 25.9147V25.9147Z" fill="#127CC1"/>
<path d="M20.5557 20.6645C20.5558 20.755 20.5361 20.8447 20.4977 20.9284C20.4593 21.0121 20.4031 21.0881 20.3322 21.1522C20.2613 21.2162 20.1771 21.267 20.0844 21.3017C19.9917 21.3364 19.8924 21.3542 19.7921 21.3542C19.6918 21.3542 19.5925 21.3364 19.4998 21.3017C19.4072 21.267 19.323 21.2162 19.2521 21.1522C19.1811 21.0881 19.1249 21.0121 19.0865 20.9284C19.0482 20.8447 19.0285 20.755 19.0285 20.6645C19.0285 20.5739 19.0482 20.4842 19.0865 20.4005C19.1249 20.3169 19.1811 20.2408 19.2521 20.1768C19.323 20.1127 19.4072 20.0619 19.4998 20.0272C19.5925 19.9926 19.6918 19.9747 19.7921 19.9747C19.8924 19.9747 19.9917 19.9926 20.0844 20.0272C20.1771 20.0619 20.2613 20.1127 20.3322 20.1768C20.4031 20.2408 20.4593 20.3169 20.4977 20.4005C20.5361 20.4842 20.5558 20.5739 20.5557 20.6645V20.6645Z" fill="#127CC1"/>
<path d="M20.5557 22.4145C20.5558 22.505 20.5361 22.5947 20.4977 22.6784C20.4593 22.7621 20.4031 22.8381 20.3322 22.9022C20.2613 22.9662 20.1771 23.017 20.0844 23.0517C19.9917 23.0864 19.8924 23.1042 19.7921 23.1042C19.6918 23.1042 19.5925 23.0864 19.4998 23.0517C19.4072 23.017 19.323 22.9662 19.2521 22.9022C19.1811 22.8381 19.1249 22.7621 19.0865 22.6784C19.0482 22.5947 19.0285 22.505 19.0285 22.4145C19.0285 22.3239 19.0482 22.2342 19.0865 22.1505C19.1249 22.0669 19.1811 21.9908 19.2521 21.9268C19.323 21.8627 19.4072 21.8119 19.4998 21.7772C19.5925 21.7426 19.6918 21.7247 19.7921 21.7247C19.8924 21.7247 19.9917 21.7426 20.0844 21.7772C20.1771 21.8119 20.2613 21.8627 20.3322 21.9268C20.4031 21.9908 20.4593 22.0669 20.4977 22.1505C20.5361 22.2342 20.5558 22.3239 20.5557 22.4145V22.4145Z" fill="#127CC1"/>
<path d="M20.5557 24.1646C20.5558 24.2552 20.5361 24.3448 20.4977 24.4285C20.4593 24.5122 20.4031 24.5882 20.3322 24.6523C20.2613 24.7163 20.1771 24.7671 20.0844 24.8018C19.9917 24.8365 19.8924 24.8543 19.7921 24.8543C19.6918 24.8543 19.5925 24.8365 19.4998 24.8018C19.4072 24.7671 19.323 24.7163 19.2521 24.6523C19.1811 24.5882 19.1249 24.5122 19.0865 24.4285C19.0482 24.3448 19.0285 24.2552 19.0285 24.1646C19.0285 24.074 19.0482 23.9843 19.0865 23.9007C19.1249 23.817 19.1811 23.7409 19.2521 23.6769C19.323 23.6128 19.4072 23.562 19.4998 23.5274C19.5925 23.4927 19.6918 23.4749 19.7921 23.4749C19.8924 23.4749 19.9917 23.4927 20.0844 23.5274C20.1771 23.562 20.2613 23.6128 20.3322 23.6769C20.4031 23.7409 20.4593 23.817 20.4977 23.9007C20.5361 23.9843 20.5558 24.074 20.5557 24.1646V24.1646Z" fill="#127CC1"/>
<path d="M22.4935 22.4145C22.4936 22.505 22.4739 22.5947 22.4355 22.6784C22.3971 22.7621 22.3409 22.8381 22.27 22.9022C22.1991 22.9662 22.1149 23.017 22.0222 23.0517C21.9296 23.0864 21.8302 23.1042 21.7299 23.1042C21.6296 23.1042 21.5303 23.0864 21.4376 23.0517C21.345 23.017 21.2608 22.9662 21.1899 22.9022C21.119 22.8381 21.0627 22.7621 21.0244 22.6784C20.986 22.5947 20.9663 22.505 20.9663 22.4145C20.9663 22.3239 20.986 22.2342 21.0244 22.1505C21.0627 22.0669 21.119 21.9908 21.1899 21.9268C21.2608 21.8627 21.345 21.8119 21.4376 21.7772C21.5303 21.7426 21.6296 21.7247 21.7299 21.7247C21.8302 21.7247 21.9296 21.7426 22.0222 21.7772C22.1149 21.8119 22.1991 21.8627 22.27 21.9268C22.3409 21.9908 22.3971 22.0669 22.4355 22.1505C22.4739 22.2342 22.4936 22.3239 22.4935 22.4145V22.4145Z" fill="#127CC1"/>
<path fill-rule="evenodd" clip-rule="evenodd" d="M11.8333 9.66858C11.4661 12.2264 8.6562 13.9511 8.67818 16.4212C8.65522 17.7124 9.87125 19.6963 12.2701 19.622C13.5446 19.6066 14.574 19.126 15.2243 18.4181C16.4256 17.0149 16.0497 15.2177 15.2779 13.7277C14.3999 12.176 12.8735 10.9494 11.8333 9.66858Z" fill="#343133"/>
<path fill-rule="evenodd" clip-rule="evenodd" d="M13.3138 13.0009C13.2421 13.4999 12.6939 13.8364 12.6982 14.3183C12.6937 14.5702 12.931 14.9573 13.399 14.9428C13.6476 14.9398 13.8485 14.846 13.9753 14.7079C14.2097 14.4341 14.1269 14.0835 13.9763 13.7928C13.805 13.4901 13.5167 13.2507 13.3138 13.0009Z" fill="white"/>
</svg>