<svg width="206" height="32" viewBox="0 0 206 32" fill="none" xmlns="http://www.w3.org/2000/svg">
<g clip-path="url(#clip0_2619_5799)">
<path d="M32.1875 0H0V6.39785H32.1875V0Z" fill="#FCB53B"/>
<path d="M32.1875 12.7957H0V19.1936H32.1875V12.7957Z" fill="#F57F29"/>
<path d="M32.1875 25.5914H0V31.9892H32.1875V25.5914Z" fill="#E32213"/>
<path d="M178.834 0V6.38719H196.623L178.844 25.5914V31.9893H206V25.5914H187.954L206 6.39785V0H178.834Z" fill="black"/>
<path d="M158.996 6.39785L164.081 19.1829H153.899L158.996 6.39785ZM154.06 0L141.7 31.9893H149.082L151.496 25.5807L166.484 25.5914L168.899 31.9999H176.237L163.169 0H154.06Z" fill="black"/>
<path d="M100.404 0L90.9619 23.0323L81.9708 0H73.9776L87.4964 31.9893H94.5025L107.935 0H100.404Z" fill="black"/>
<path d="M45.0518 0V31.9893H71.467V25.5914L51.5107 25.5808V19.1936H71.467V12.785H51.5107V6.40852L71.467 6.38719V0H45.0518Z" fill="black"/>
<path d="M131.475 18.5965C135.413 17.157 137.87 13.5742 137.87 9.50089C137.87 4.2973 133.471 0.0107422 128.267 0.0107422H123.31H110.51V32H116.948V19.1616H124.544L131.765 31.968H139.49L131.475 18.5965ZM127.967 12.8064H116.948V6.50456H127.967C129.716 6.50456 131.132 7.91209 131.132 9.65017C131.132 11.3883 129.716 12.8064 127.967 12.8064Z" fill="black"/>
</g>
<defs>
<clipPath id="clip0_2619_5799">
<rect width="206" height="32" fill="white"/>
</clipPath>
</defs>
</svg>