<svg id="LOGO" xmlns="http://www.w3.org/2000/svg" width="108.169" height="51.556" viewBox="0 0 108.169 51.556">
  <path id="Path_18" data-name="Path 18" d="M728.713,798.343a3.758,3.758,0,1,1,3.757,3.756,3.76,3.76,0,0,1-3.757-3.756m-.847,6.441,4.6,6.692,4.6-6.692a2.225,2.225,0,1,1,3.666,2.521l-5.57,8.1,5.57,8.1a2.225,2.225,0,1,1-3.666,2.521l-4.6-6.693-4.6,6.693A2.225,2.225,0,0,1,724.2,823.5l5.571-8.1-5.571-8.1a2.225,2.225,0,1,1,3.668-2.521m-19.263,0,4.606,6.692,4.6-6.692a2.225,2.225,0,1,1,3.668,2.521l-5.569,8.1,5.569,8.1a2.225,2.225,0,1,1-3.668,2.521l-4.6-6.693-4.606,6.693a2.225,2.225,0,1,1-3.666-2.521l5.569-8.1-5.569-8.1a2.225,2.225,0,1,1,3.666-2.521m.847-6.441a3.758,3.758,0,1,1,3.759,3.756,3.76,3.76,0,0,1-3.759-3.756" transform="translate(-686.614 -794.584)" fill="#fff"/>
  <path id="Path_19" data-name="Path 19" d="M789.237,821.653V809.166a7.94,7.94,0,0,0-7.156,0v12.487a7.94,7.94,0,0,0,7.156,0m4.225,2.812a12.021,12.021,0,0,1-7.8,2.471,11.874,11.874,0,0,1-7.8-2.471V806.354a11.876,11.876,0,0,1,7.8-2.474,12.024,12.024,0,0,1,7.8,2.474Zm-92.561,0a12.008,12.008,0,0,1-7.8,2.471,11.874,11.874,0,0,1-7.8-2.471V806.354a11.876,11.876,0,0,1,7.8-2.474,12.01,12.01,0,0,1,7.8,2.474v8.822a11.589,11.589,0,0,1-7.8,2.471h-3.576v4.006a7.93,7.93,0,0,0,7.152,0v-.213a2.115,2.115,0,1,1,4.225,0Zm-4.225-12.1v-3.2a7.93,7.93,0,0,0-7.152,0v4.047H693.1a8.235,8.235,0,0,0,3.576-.852m60.109,12.1a11.87,11.87,0,0,1-7.8,2.471,12.026,12.026,0,0,1-7.8-2.471v-8.778a12.028,12.028,0,0,1,7.8-2.474,16.028,16.028,0,0,1,3.578.384v-4.431a7.934,7.934,0,0,0-7.154,0v.213a2.119,2.119,0,1,1-4.228,0v-3.025a12.028,12.028,0,0,1,7.8-2.474,11.872,11.872,0,0,1,7.8,2.474Zm-4.223-2.812V818.5a7.917,7.917,0,0,0-7.154,0v3.152a7.934,7.934,0,0,0,7.154,0m23.145-10.23a2.116,2.116,0,1,1-4.228,0v-2.471a8.452,8.452,0,0,0-3.171-.681,8.261,8.261,0,0,0-3.167.681v15.811a2.116,2.116,0,1,1-4.227,0v-18.75a11.9,11.9,0,0,1,7.394-2.176,12.066,12.066,0,0,1,7.4,2.176Z" transform="translate(-685.296 -795.335)" fill="#fff"/>
  <path id="Path_20" data-name="Path 20" d="M727.741,848.553v-6.2h-1.222v2.618c0,.348.018,1.127.018,1.356-.079-.159-.286-.467-.436-.7l-2.194-3.275h-1.186v6.2h1.222v-2.726c0-.345-.018-1.122-.018-1.356.08.161.284.47.436.7l2.274,3.382Z" transform="translate(-687.114 -797.094)" fill="#fff"/>
  <path id="Path_21" data-name="Path 21" d="M734.6,846.154v-.813h-2.222V846.5h.982c-.071.54-.364.94-1.211.94-.929,0-1.47-.843-1.47-1.983s.532-1.967,1.461-1.967a1.2,1.2,0,0,1,1.186.806l1.178-.486a2.31,2.31,0,0,0-2.346-1.551c-1.619,0-2.755,1.311-2.755,3.2,0,1.953,1.09,3.193,2.71,3.193a2.334,2.334,0,0,0,2.487-2.5" transform="translate(-687.442 -797.094)" fill="#fff"/>
  <path id="Path_22" data-name="Path 22" d="M744.108,844.324a1.921,1.921,0,0,0-2.133-1.965h-2.707v6.2h1.238v-2.2h1.363c1.283,0,2.239-.6,2.239-2.032m-1.274.025c0,.54-.309.806-.884.806h-1.444v-1.592h1.426c.548,0,.9.247.9.786" transform="translate(-687.914 -797.094)" fill="#fff"/>
  <path id="Path_23" data-name="Path 23" d="M750.734,845.455c0-1.885-1-3.2-2.692-3.2s-2.689,1.311-2.689,3.2,1,3.2,2.689,3.2,2.692-1.31,2.692-3.2m-1.275,0c0,1.106-.415,1.964-1.417,1.964s-1.415-.858-1.415-1.964.416-1.965,1.415-1.965,1.417.859,1.417,1.965" transform="translate(-688.223 -797.094)" fill="#fff"/>
  <path id="Path_24" data-name="Path 24" d="M756.807,846.677c0-1.345-1.088-1.683-2.071-1.915s-1.25-.352-1.25-.741c0-.277.225-.558.886-.558a1.891,1.891,0,0,1,1.409.638l.892-.868a2.959,2.959,0,0,0-2.255-.974c-1.222,0-2.215.69-2.215,1.815,0,1.222.8,1.585,1.94,1.849,1.17.265,1.381.443,1.381.842,0,.466-.345.673-1.081.673a2.01,2.01,0,0,1-1.583-.709l-.895.8a2.88,2.88,0,0,0,2.407,1.124c1.692,0,2.435-.8,2.435-1.973" transform="translate(-688.529 -797.094)" fill="#fff"/>
  <path id="Path_25" data-name="Path 25" d="M762.919,846.677c0-1.345-1.088-1.683-2.069-1.915s-1.249-.352-1.249-.741c0-.277.223-.558.886-.558a1.885,1.885,0,0,1,1.408.638l.893-.868a2.961,2.961,0,0,0-2.256-.974c-1.222,0-2.214.69-2.214,1.815,0,1.222.8,1.585,1.939,1.849,1.17.265,1.379.443,1.379.842,0,.466-.345.673-1.079.673a2.021,2.021,0,0,1-1.585-.709l-.893.8a2.881,2.881,0,0,0,2.408,1.124c1.69,0,2.432-.8,2.432-1.973" transform="translate(-688.826 -797.094)" fill="#fff"/>
  <path id="Path_26" data-name="Path 26" d="M710.881,848.553V847.34h-3.193v-1.5h1.781v-1.2h-1.781v-1.07h3.062v-1.213h-4.3v6.2Z" transform="translate(-686.318 -797.094)" fill="#fff"/>
  <rect id="Rectangle_23" data-name="Rectangle 23" width="1.24" height="6.196" transform="translate(32.506 45.262)" fill="#fff"/>
  <rect id="Rectangle_24" data-name="Rectangle 24" width="1.238" height="6.196" transform="translate(75.692 45.262)" fill="#fff"/>
  <rect id="Rectangle_25" data-name="Rectangle 25" width="1.238" height="6.196" transform="translate(85.305 45.262)" fill="#fff"/>
  <path id="Path_27" data-name="Path 27" d="M782.466,848.553v-1.222h-3.1v-4.974h-1.24v6.2Z" transform="translate(-690.563 -797.094)" fill="#fff"/>
  <rect id="Rectangle_26" data-name="Rectangle 26" width="1.238" height="6.196" transform="translate(93.53 45.262)" fill="#fff"/>
  <path id="Path_28" data-name="Path 28" d="M791.811,843.579v-1.22h-4.8v1.22h1.779v4.974h1.238v-4.974Z" transform="translate(-690.563 -797.094)" fill="#fff"/>
  <path id="Path_29" data-name="Path 29" d="M690.139,844.324a1.921,1.921,0,0,0-2.133-1.965H685.3v6.2h1.241v-2.2H687.9c1.284,0,2.24-.6,2.24-2.032m-1.274.025c0,.54-.309.806-.884.806h-1.444v-1.592h1.424c.549,0,.9.247.9.786" transform="translate(-685.296 -797.094)" fill="#fff"/>
  <path id="Path_30" data-name="Path 30" d="M696.764,845.455c0-1.885-1-3.2-2.691-3.2s-2.689,1.311-2.689,3.2,1,3.2,2.689,3.2,2.691-1.31,2.691-3.2m-1.271,0c0,1.106-.418,1.964-1.42,1.964s-1.415-.858-1.415-1.964.418-1.965,1.415-1.965,1.42.859,1.42,1.965" transform="translate(-685.296 -797.094)" fill="#fff"/>
  <path id="Path_31" data-name="Path 31" d="M704.81,842.359h-1.272L703,845.375c-.055.293-.125.763-.152,1.018-.043-.255-.141-.716-.214-1.018l-.733-3.016h-1.079l-.727,3.016c-.07.3-.166.763-.211,1.018-.025-.255-.1-.716-.15-1.018l-.541-3.016H697.9l1.29,6.2h1.161l.777-3.189a10.273,10.273,0,0,0,.2-1.061c.034.232.125.691.211,1.061l.761,3.189h1.215Z" transform="translate(-685.296 -797.094)" fill="#fff"/>
  <path id="Path_32" data-name="Path 32" d="M798.732,842.359h-1.409l-.874,1.467c-.232.391-.559.984-.675,1.213-.113-.229-.449-.838-.674-1.213l-.875-1.467H792.8l2.344,3.77v2.426h1.24V846.1Z" transform="translate(-690.563 -797.094)" fill="#fff"/>
  <path id="Path_33" data-name="Path 33" d="M773.049,846.552a1.423,1.423,0,0,0-.865-1.354,1.359,1.359,0,0,0,.652-1.2c0-1.06-.759-1.637-1.965-1.637h-2.839v6.2h2.814a1.936,1.936,0,0,0,2.2-2m-1.469-2.46c0,.345-.184.584-.7.584h-1.638V843.5h1.576c.541,0,.759.2.759.593m.2,2.478c0,.486-.284.806-.883.806h-1.647v-1.6h1.647c.6,0,.883.263.883.795" transform="translate(-689.315 -797.094)" fill="#fff"/>
  <path id="Path_34" data-name="Path 34" d="M717.618,848.555l-1.186-2.41a1.769,1.769,0,0,0,1.186-1.821,1.921,1.921,0,0,0-2.133-1.965H712.6v6.2h1.24v-2.233h1.247l1.106,2.233Zm-1.275-4.206c0,.54-.311.806-.885.806h-1.62v-1.6h1.62c.549,0,.885.232.885.789" transform="translate(-686.622 -797.094)" fill="#fff"/>
</svg>
