<svg width="219" height="36" viewBox="0 0 219 36" fill="none" xmlns="http://www.w3.org/2000/svg">
<path d="M31.3092 18.6756L29.524 19.3241C28.7001 19.5835 28.2881 20.1023 28.2881 20.8804C28.2881 23.2149 28.4254 25.5493 28.7001 27.8838C25.1297 29.8291 21.0101 30.8667 16.6158 30.8667C13.4574 30.8667 10.711 30.3479 8.37657 29.1807C3.57034 26.8462 0.823925 22.8258 0.137321 17.249C0.137321 16.6006 0 15.9521 0 15.4333C0 10.8941 1.64785 7.26275 4.80623 4.66891C8.65121 1.42661 13.1828 0 18.401 0C21.4221 0 24.7178 0.518768 28.1508 1.42661L27.4642 8.55967C27.4642 8.94874 27.3268 9.20813 27.1895 9.07844C27.0522 9.07844 26.9149 8.81905 26.7776 8.42998L25.9536 4.92829C25.8163 4.40953 25.679 4.02045 25.5417 3.76107C25.4044 3.50168 24.8551 3.2423 24.3058 2.98291C22.6579 2.33445 20.7354 1.94538 18.5383 1.94538C14.968 1.94538 11.9469 2.72353 9.33782 4.27983C5.63015 6.4846 3.84498 10.2457 3.9823 15.4333C3.9823 17.7678 4.53159 19.8429 5.35551 21.6586C6.45408 23.993 7.96461 25.8087 10.0244 26.8462C12.3589 28.0135 14.6933 28.6619 17.0278 28.6619C19.0876 28.6619 21.1474 28.1432 23.2072 27.2353C24.4431 26.5868 25.1297 25.8087 25.1297 24.7712C25.267 22.4367 24.9924 20.8804 24.7178 19.9726C24.5804 19.7132 24.3058 19.4538 23.7565 19.3241L21.6967 18.6756C21.2847 18.5459 21.0101 18.4163 21.1474 18.2866C21.1474 18.1569 21.5594 18.0272 21.9713 18.0272H31.3092C31.8584 18.0272 32.1331 18.1569 32.1331 18.2866C31.8584 18.4163 31.7211 18.5459 31.3092 18.6756ZM50.946 23.3445C50.8087 23.3445 50.5341 23.4742 50.5341 23.8633L49.2982 26.7165C49.1609 27.1056 48.8862 27.365 48.7489 27.365C48.4743 27.4947 48.0623 27.4947 47.3757 27.4947H40.235C39.5484 27.4947 39.2738 27.1056 39.2738 26.4572C39.1364 23.2149 39.1364 19.4538 39.1364 15.174C39.1364 10.8941 39.1364 7.52213 39.2738 4.92829C39.2738 3.89076 39.2738 3.2423 39.4111 2.98291C39.5484 2.46415 39.6857 2.20476 40.235 2.07507L42.5695 1.42661C42.9814 1.29692 43.2561 1.16723 43.2561 1.03754C43.2561 0.907844 42.9814 0.778152 42.4321 0.778152H32.6824C32.1331 0.778152 31.8584 0.907844 31.8584 1.03754C31.8584 1.16723 32.1331 1.29692 32.545 1.42661L34.8795 2.07507C35.2915 2.20476 35.5661 2.46415 35.5661 2.98291C35.5661 3.11261 35.7034 3.76107 35.7034 4.92829C35.8407 7.52213 35.8407 10.8941 35.8407 15.174C35.8407 19.4538 35.8407 22.8258 35.7034 25.4196C35.7034 26.5868 35.7034 27.2353 35.5661 27.365C35.4288 27.7541 35.2915 28.1432 34.8795 28.1432L32.545 28.7916C32.1331 28.9213 31.8584 29.051 31.8584 29.1807C31.8584 29.3104 32.1331 29.4401 32.6824 29.4401H50.946L51.2207 23.2149C51.2207 23.4742 51.0834 23.3445 50.946 23.3445ZM73.4667 23.3445C73.3293 23.3445 73.0547 23.4742 72.9174 23.8633C72.2308 25.4196 71.9561 26.4572 71.8188 26.8462C71.6815 27.2353 71.4068 27.4947 71.1322 27.4947C70.8576 27.6244 70.4456 27.6244 69.759 27.6244H60.5585C59.8719 27.6244 59.5972 27.2353 59.5972 26.5868L59.4599 15.9521H67.6992C68.5231 15.9521 68.9351 16.2115 69.0724 16.86C69.347 17.8975 69.6217 18.6756 69.8963 19.4538C70.0336 19.8429 70.1709 19.9726 70.3083 19.9726C70.4456 19.9726 70.5829 19.5835 70.5829 19.0647V11.5426C70.5829 11.4129 70.4456 11.2832 70.3083 11.2832C70.1709 11.2832 70.0336 11.4129 70.0336 11.5426C69.8963 12.191 69.6217 12.5801 69.4843 12.9692C69.2097 13.3583 69.0724 13.7473 68.7977 13.7473C68.6604 13.877 68.2485 13.877 67.6992 13.877H59.4599L59.5972 3.89076C59.5972 3.50168 59.5972 3.11261 59.7346 2.98291C59.8719 2.85322 60.1465 2.85322 60.5585 2.85322H66.326C68.5231 2.85322 69.759 2.98291 70.1709 3.11261C70.4456 3.37199 70.9949 4.27983 71.6815 6.09552C71.8188 6.4846 71.9561 6.74398 72.0934 6.74398C72.2308 6.74398 72.3681 6.4846 72.3681 5.96583V0.64846C70.3083 0.778152 67.8365 0.907844 64.9528 0.907844C61.7944 0.907844 57.8121 1.03754 53.0058 1.03754C52.4566 1.03754 52.1819 1.16723 52.1819 1.29692C52.1819 1.42661 52.4566 1.5563 52.8685 1.686L55.203 2.33445C55.6149 2.46415 55.8896 2.72353 55.8896 3.2423C55.8896 3.37199 56.0269 4.02045 56.0269 5.18768C56.1642 7.91121 56.1642 11.2832 56.1642 15.4333C56.1642 19.4538 56.1642 22.9555 56.0269 25.679C56.0269 26.8462 56.0269 27.4947 55.8896 27.6244C55.7523 28.1431 55.6149 28.4025 55.203 28.4025L52.8685 29.051C52.4566 29.1807 52.1819 29.3104 52.1819 29.4401C52.1819 29.5698 52.4566 29.6995 53.0058 29.6995H73.4667L73.7413 23.4742C73.7413 23.4742 73.604 23.3445 73.4667 23.3445ZM109.994 1.16723C109.994 1.03754 109.719 0.907844 109.17 0.907844H100.519C99.9696 0.907844 99.6949 1.03754 99.6949 1.16723C99.6949 1.29692 99.9696 1.42661 100.382 1.5563L102.716 2.20476C103.128 2.33445 103.403 2.59384 103.54 3.11261C103.54 3.2423 103.677 3.89076 103.677 5.05799C103.815 7.91121 103.815 11.2832 103.815 15.3036C103.815 19.4538 103.815 22.5664 103.677 24.5118L86.5121 7.26275C83.2164 3.76107 81.1566 1.42661 80.1954 0.259384H77.9982C78.1356 2.46415 78.2729 4.15014 78.2729 5.18768C78.4102 8.0409 78.4102 11.4129 78.4102 15.4333C78.4102 19.5835 78.4102 22.9555 78.2729 25.679C78.2729 26.8462 78.2729 27.4947 78.1356 27.6244C77.9982 28.1431 77.8609 28.4025 77.449 28.5322L75.1145 29.1807C74.7025 29.3104 74.4279 29.4401 74.4279 29.5698C74.4279 29.6995 74.7025 29.8291 75.2518 29.8291H83.903C84.4523 29.8291 84.727 29.6995 84.727 29.5698C84.727 29.4401 84.4523 29.3104 84.0404 29.1807L81.5686 28.5322C81.1566 28.4025 80.882 28.1431 80.882 27.6244C80.882 27.365 80.7447 26.7165 80.7447 25.679C80.6073 22.9555 80.6073 19.5835 80.6073 15.4333C80.6073 11.4129 80.6073 8.30028 80.7447 6.09552C88.4346 13.877 94.3394 19.7132 98.459 23.993C101.343 27.1056 103.265 29.1807 104.227 30.3479H106.561C106.424 28.2728 106.286 26.7165 106.286 25.679C106.149 22.9555 106.149 19.5835 106.149 15.4333C106.149 11.4129 106.149 8.0409 106.286 5.18768C106.286 4.15014 106.286 3.50168 106.424 3.2423C106.561 2.72353 106.698 2.46415 107.11 2.33445L109.582 1.686C109.857 1.5563 109.994 1.29692 109.994 1.16723ZM137.458 21.5289C137.321 21.5289 137.046 21.7882 136.772 22.4367C136.497 23.3445 136.222 23.7336 136.085 23.8633C135.536 24.9009 134.986 25.679 134.437 26.1978C132.652 27.8838 129.768 28.6619 126.061 28.6619C124.687 28.6619 123.589 28.5322 122.49 28.2728C117.409 26.9759 114.251 23.8633 112.878 19.1944C112.603 18.1569 112.466 16.9896 112.466 15.6927C112.466 11.5426 113.702 8.42998 116.036 6.09552C118.783 3.50168 122.353 2.20476 127.022 2.20476C128.258 2.20476 129.494 2.33445 130.455 2.59384C131.828 2.85322 132.789 3.50168 133.476 4.40953C133.888 5.05799 134.437 6.22521 134.849 7.78152C134.986 8.42998 135.124 8.68936 135.398 8.68936C135.536 8.68936 135.673 8.42998 135.673 8.0409V1.16723C132.927 0.389076 130.18 0 127.434 0C123.314 0 119.744 0.907844 116.86 2.59384C114.251 4.15014 112.191 5.96583 110.818 8.30028C109.582 10.3754 108.895 12.5801 108.758 14.9146C108.483 20.2319 110.681 24.5118 115.212 27.6244C118.233 29.6995 121.941 30.737 126.335 30.737C129.356 30.737 132.789 30.0885 136.497 28.7916L137.733 21.7882C137.595 21.6586 137.595 21.5289 137.458 21.5289ZM171.239 19.5835C170.552 22.1773 169.042 24.3821 166.982 26.1978C164.922 28.0135 162.588 29.1807 159.841 29.9588C157.782 30.4776 155.722 30.8667 153.937 30.8667C149.954 30.8667 146.521 29.5698 143.363 27.1056C141.44 25.5493 140.067 23.6039 139.106 21.1398C138.282 19.1944 137.87 17.1193 137.87 15.0443C137.87 14.5255 137.87 14.0067 138.007 13.488C138.694 8.30028 141.715 4.40953 146.796 1.94538C148.581 1.16723 150.778 0.518768 153.113 0.259384C154.074 0.129692 154.898 0.129692 155.859 0.129692C161.077 0.129692 165.334 1.94538 168.493 5.57675C170.69 8.17059 171.926 11.5426 171.926 15.4333C171.788 16.9896 171.514 18.2866 171.239 19.5835ZM168.081 16.2115C168.081 14.3958 167.806 12.5801 167.119 10.7644C166.433 8.94874 165.334 7.39244 164.098 6.22521C161.352 3.76107 158.056 2.46415 154.349 2.46415C153.25 2.46415 152.151 2.59384 151.053 2.85322C146.521 3.89076 143.5 6.61429 142.127 11.0238C141.715 12.191 141.578 13.488 141.578 14.9146C141.578 18.8053 142.814 22.0476 145.423 24.5118C148.032 27.1056 151.19 28.4025 155.173 28.4025C156.271 28.4025 157.37 28.2728 158.331 28.1432C163.137 26.9759 166.296 24.2524 167.669 19.8429C167.943 18.6756 168.081 17.3787 168.081 16.2115ZM210.65 34.8871C206.943 37.0919 201.175 35.5356 198.566 34.3684C196.643 33.5902 191.013 29.1807 187.992 26.1978L179.066 17.5084C178.929 17.5084 178.517 17.5084 177.968 17.5084V25.8087C177.968 26.8462 177.968 27.4947 178.105 27.7541C178.242 28.2728 178.38 28.5322 178.929 28.6619L181.264 29.3104C181.675 29.4401 181.95 29.5698 181.95 29.6995C181.95 29.8291 181.675 29.9588 181.126 29.9588H171.514C170.964 29.9588 170.69 29.8291 170.69 29.6995C170.69 29.5698 170.964 29.4401 171.376 29.3104L173.711 28.6619C174.123 28.5322 174.397 28.2728 174.397 27.7541C174.397 27.6244 174.535 26.9759 174.535 25.8087C174.672 23.0852 174.672 19.7132 174.672 15.563C174.672 11.5426 174.672 8.17059 174.535 5.31737C174.535 4.27983 174.535 3.63137 174.397 3.37199C174.26 2.85322 174.123 2.59384 173.711 2.46415L171.376 1.81569C170.69 1.5563 170.415 1.42661 170.415 1.29692C170.415 1.16723 170.69 1.03754 171.239 1.03754L179.89 0.907844C182.499 0.907844 184.422 1.03754 185.658 1.29692C187.718 1.81569 189.365 3.11261 190.601 5.05799C191.288 6.09552 191.563 7.39244 191.563 8.81905C191.563 10.3754 191.151 11.802 190.327 13.0989C189.091 15.0443 186.756 16.4709 183.461 17.1193L192.798 26.9759C194.584 28.7916 198.291 31.7745 201.038 33.0714C201.312 33.2011 203.509 34.109 205.157 34.3684C206.668 34.6277 210.925 34.7574 210.65 34.8871ZM179.066 15.3036C181.126 15.3036 182.637 15.0443 184.01 14.3958C186.344 13.3583 187.58 11.6723 187.718 9.20813C187.855 6.87367 186.894 5.05799 184.697 3.76107C183.461 3.11261 182.087 2.72353 180.44 2.72353C179.753 2.72353 179.204 2.85322 178.792 2.98291C178.242 3.2423 177.968 3.50168 177.968 3.89076C177.968 3.89076 177.968 4.27983 177.968 5.05799V6.87367V15.0443C178.242 15.3036 178.654 15.3036 179.066 15.3036ZM217.928 23.3445C217.791 23.3445 217.516 23.4742 217.379 23.8633C216.692 25.4196 216.418 26.4572 216.28 26.8462C216.143 27.2353 215.868 27.4947 215.594 27.4947C215.319 27.6244 214.907 27.6244 214.221 27.6244H205.02C204.333 27.6244 204.059 27.2353 204.059 26.5868L203.921 15.9521H212.161C212.985 15.9521 213.397 16.2115 213.534 16.86C213.809 17.8975 214.083 18.6756 214.358 19.4538C214.495 19.8429 214.632 19.9726 214.77 19.9726C214.907 19.9726 215.044 19.5835 215.044 19.0647V11.5426C215.044 11.4129 214.907 11.2832 214.77 11.2832C214.632 11.2832 214.495 11.4129 214.495 11.5426C214.358 12.191 214.083 12.5801 213.946 12.9692C213.671 13.3583 213.534 13.7473 213.259 13.7473C213.122 13.877 212.71 13.877 212.161 13.877H203.921L204.059 3.89076C204.059 3.50168 204.059 3.11261 204.196 2.98291C204.333 2.85322 204.608 2.85322 205.02 2.85322H210.787C212.985 2.85322 214.221 2.98291 214.632 3.11261C214.907 3.37199 215.456 4.27983 216.143 6.09552C216.28 6.4846 216.418 6.74398 216.555 6.74398C216.692 6.74398 216.83 6.4846 216.83 5.96583V0.64846C214.77 0.778152 212.298 0.907844 209.414 0.907844C206.256 0.907844 202.274 1.03754 197.467 1.03754C196.918 1.03754 196.643 1.16723 196.643 1.29692C196.643 1.42661 196.918 1.5563 197.33 1.686L199.665 2.33445C200.076 2.46415 200.351 2.72353 200.351 3.2423C200.351 3.37199 200.488 4.02045 200.488 5.18768C200.626 7.91121 200.626 11.2832 200.626 15.4333C200.626 19.4538 200.626 22.9555 200.488 25.679C200.488 26.8462 200.488 27.4947 200.351 27.6244C200.214 28.1431 200.076 28.4025 199.665 28.4025L197.33 29.051C196.918 29.1807 196.643 29.3104 196.643 29.4401C196.643 29.5698 196.918 29.6995 197.467 29.6995H217.928L218.203 23.4742C218.066 23.4742 218.066 23.3445 217.928 23.3445Z" fill="black"/>
</svg>
