<svg width="210" height="32" viewBox="0 0 210 32" xmlns="http://www.w3.org/2000/svg"><g fill="none" fill-rule="evenodd"><path d="M0 0h210v32H0z"/><path d="M207.386 8.01c-3.244 0-5.137 1.498-6.579 4.226h-.09V8.583h-8.563v22.845h8.923v-9.023c0-4.886 1.894-6.911 5.408-6.911 1.802 0 2.614.264 3.515.572V8.363a10.417 10.417 0 0 0-2.614-.352zm-53.375 0c-5.813 0-7.615 3.302-7.976 3.567-1.082-2.29-3.785-3.566-6.31-3.566-3.244 0-5.858.969-7.66 3.61h-.09V8.582h-8.607v22.845h8.922V19.06c0-2.376.767-4.094 3.02-4.094 2.704 0 2.929 1.938 2.929 4.094v12.37h8.922v-12.37c0-2.376.766-4.094 3.02-4.094 2.704 0 2.929 1.938 2.929 4.094v12.37h8.922V15.757c0-3.697-2.027-7.747-8.021-7.747zm26.137 15.275c-.135 2.377-1.713 3.565-3.74 3.565-1.623 0-2.795-1.057-2.795-2.113 0-1.54 1.037-2.024 3.02-2.464 1.216-.265 2.433-.573 3.515-1.101v2.113zm8.562-6.339c0-4.401.09-8.935-11.086-8.935-2.75 0-5.723.264-7.976 1.32-2.299 1.057-3.92 2.95-4.057 6.163h8.293c.045-.969.586-2.333 3.335-2.333 1.442 0 2.929.572 2.929 2.113 0 1.452-1.217 1.804-2.434 2.025-4.552.836-13.203.572-13.203 7.79 0 4.798 3.74 6.911 8.246 6.911 2.884 0 5.633-.616 7.526-2.729h.09c-.045.616.09 1.54.315 2.157h9.104c-.992-1.452-1.082-3.39-1.082-5.106v-9.376zm-93.863 8.716c-3.38 0-3.83-3.257-3.83-5.678s.45-5.634 3.83-5.634 3.83 3.213 3.83 5.634c0 2.42-.45 5.678-3.83 5.678zm0-17.651c-8.787 0-12.753 5.634-12.753 11.973C82.094 26.322 86.06 32 94.847 32c8.787 0 12.753-5.678 12.753-12.016 0-6.339-3.966-11.973-12.753-11.973zM110.3 31.428h8.922V0H110.3v31.428zM82.198 0H69.985l-8.832 10.828h-.09V0L31.191.002c-1.059.011-2.027.024-2.869.037-2.26.039-4.372.212-6.677.703-5.084 1.084-9.733 3.562-13.56 7.124-1.42 1.322-2.465 2.709-3.595 4.315a24.779 24.779 0 0 0-3.39 6.923C-.167 23.151-.235 27.231.368 31.427l45.675.01c.59.009.55-.631.05-.668-.624-.048-2.382-.164-3.107-.177-3.293-.057-6.557-.504-9.836-.808-2.766-.257-5.335-.76-8.115-1.324-2.136-.433-4.186-.979-6.24-1.58-2.26-.803-4.34-1.367-6.562-2.383-.486-.223-1.156-.526-1.542-.79-.144-.1-.036-.42.235-.308.498.208.806.283 1.307.422 8.154 2.256 16.862 3.13 25.399 2.833 2.994-.104 5.488-.32 8.398-.878.59-.113.71-.612-.026-.639-5.852.265-11.005-.515-16.86-1.719-5.65-1.304-10.951-2.819-15.999-5.284a3.816 3.816 0 0 1-.677-.45c-.174-.151-.042-.319.105-.274 7.775 2.434 15.685 3.75 23.671 3.726 2.055-.007 3.866-.025 6.087-.289 1.34-.159 2.607-.187 3.75-.815.244-.088.18-.49-.117-.464-4.93.402-9.732-.063-14.663-1.266-3.595-.803-6.895-1.556-10.234-2.948-2.193-.915-4.297-1.55-6.21-3.073-.113-.09-.017-.284.123-.238.875.285 1.732.6 2.646.84 6.42 1.693 13.573 2.948 20.686 2.86 2.054-.025 5.265-.238 6.331-1.129.21-.176.051-.42-.134-.402-4.309.418-7.666-.085-11.474-.984-4.97-1.173-9.515-2.552-13.823-5.381l-.322-.2c-.173-.1-.084-.34.127-.233 2.38.862 4.381 1.448 7.135 1.982 3.685.714 7.176 1.162 10.893 1.074 1.766-.042 3.896-.135 5.45-.987.201-.111.166-.49-.309-.401-.835.125-1.8.144-2.722.075-2.183-.163-4.33-.609-6.525-1.253-3.076-.903-7.263-2.144-9.613-4.214-.128-.109.009-.3.137-.192 1.288.635 2.673 1.072 4.028 1.48 1.7.512 3.722.809 5.776.95 1.944.133 3.907.01 5.515-.775.216-.106.115-.383-.193-.351-3.099.083-7.431-.917-9.548-2.454-.297-.216-.642-.516-.548-.87.206-.77 2.905-.655 4.435-.385 2.174.385 4.023.953 5.975 1.857 4.314 2.007 7.807 4.916 10.683 8.93 2.568 3.712 3.903 7.524 4.416 11.74.309 2.608.206 5.198.206 7.807l6.855.001V22.14l2.749-2.949 7.932 12.237H84.09L70.527 12.281 82.197 0z" fill="#FFF"/></g></svg>