<svg id="Layer_1" data-name="Layer 1" xmlns="http://www.w3.org/2000/svg" width="220" height="100"><defs><style>.cls-17{fill:#414142}</style></defs><path fill="#fff3a9" d="M200.308 16.92l12.459 5.858-11.496 5.7-12.49-6.244 11.527-5.314z"/><path fill="#fdeb79" d="M186.87 17.805l13.438-.885-11.527 5.314-13.773-.066 11.862-4.363z"/><path fill="#fee449" d="M178.531 9.645l8.339 8.16-11.862 4.363-8.394-9.77 11.917-2.753z"/><path fill="#fedc04" d="M166.614 7.656l11.917 1.989-11.917 2.753-11.453-2.778 11.453-1.964z"/><path fill="#ffe5b4" d="M188.781 22.234l12.49 6.244-9.065 11.335-12.743-6.548 9.318-11.031z"/><path fill="#ffd98d" d="M175.008 22.168l13.773.066-9.318 11.031-12.916-1.225 8.461-9.872z"/><path fill="#fecc67" d="M166.614 12.398l8.394 9.772-8.461 9.87-8.829-9.815 8.896-9.827z"/><path fill="#febf40" d="M155.161 9.62l11.453 2.778-8.896 9.827-11.771-3.812 9.214-8.793z"/><path fill="#fcd4b3" d="M179.463 33.265l12.743 6.548-11.482 5.532-12.332-7.154 11.071-4.926z"/><path fill="#f9bf8b" d="M166.547 32.04l12.916 1.225-11.071 4.926-13.204-2.008 11.359-4.143z"/><path fill="#f9ab65" d="M157.718 22.225l8.829 9.815-11.359 4.143-9.486-9.802 12.016-4.156z"/><path fill="#f7953f" d="M145.947 18.413l11.771 3.812-12.016 4.156-12.573-4.302 12.818-3.666z"/><path fill="#fbc4b4" d="M168.392 38.191l12.332 7.154-4.692 13.998-12.403-8.014 4.763-13.138z"/><path fill="#f8a78e" d="M155.188 36.183l13.204 2.008-4.763 13.138-13.871-2.591 5.43-12.555z"/><path fill="#f58468" d="M145.702 26.381l9.486 9.802-5.43 12.555-9.832-10.547 5.776-11.81z"/><path fill="#f16743" d="M133.138 22.079l12.564 4.302-5.776 11.81-12.273-4.601 5.485-11.511z"/><path class="cls-17" d="M13.315 61.75h12.04v5.1H7.568V38.528h5.748zM27.96 45.75h5.544v13c0 2.637 1.196 3.955 3.55 3.955 3.32 0 5.273-2.277 5.273-6.544V45.75h5.54v21.1h-5.54l-.847-1.836a7.034 7.034 0 01-5.147 2.197 9.365 9.365 0 01-5.822-1.554c-1.631-1.157-2.552-3.51-2.552-6.907zM72.838 66.851h-5.544v-13c0-2.637-1.2-3.952-3.555-3.952-3.309 0-5.26 2.274-5.26 6.535v10.417h-5.545v-21.1h5.544l.844 1.831a7.018 7.018 0 015.14-2.192 9.41 9.41 0 015.827 1.554c1.636 1.162 2.55 3.512 2.55 6.908zM92.671 47.984v-9.457h5.547v28.324h-5.547l-.561-1.434a8.169 8.169 0 01-5.35 1.795c-3.386 0-5.978-.995-7.814-2.995a11.192 11.192 0 01-2.755-7.896 10.958 10.958 0 012.867-7.983 10.416 10.416 0 017.701-2.949 7.514 7.514 0 015.912 2.595zM91.51 60.787a7.001 7.001 0 00-.04-8.94 5.423 5.423 0 00-4.304-1.83c-3.677 0-5.428 2.756-5.428 6.303 0 3.551 1.914 6.305 5.428 6.305a5.332 5.332 0 004.344-1.838zM108.76 66.851h-5.544V47.09h5.544zM133.515 66.851h-5.542v-13c0-2.637-1.202-3.952-3.548-3.952-3.31 0-5.27 2.274-5.27 6.535v10.417h-5.547v-21.1h5.547l.837 1.831a7.055 7.055 0 015.146-2.192 9.407 9.407 0 015.826 1.554c1.633 1.162 2.551 3.512 2.551 6.908zM108.76 44.072h-5.544v-5.545h5.544v5.545zM17.084 88.111h-9.39V73.896h9.19v1.502H9.376v4.584h6.306v1.502H9.376v5.126h7.708v1.501zM28.18 88.111h-1.583v-6.927c0-1.042-.24-2.402-2.281-2.402-2.283 0-3.605 1.44-3.605 3.903v5.426H19.13V77.52h1.582l.401 1.302a4.089 4.089 0 013.223-1.482c3.284 0 3.844 1.962 3.844 3.804zM40.296 83.247h-8.45a3.466 3.466 0 003.544 3.603 3.76 3.76 0 003.104-1.52l1.24.72a5.12 5.12 0 01-4.344 2.242 4.982 4.982 0 01-5.125-5.407c0-2.863 1.582-5.545 5.006-5.545 3.503 0 5.025 2.723 5.025 5.306zm-8.37-1.442h6.788a3.416 3.416 0 00-6.787 0M48.468 78.961a1.383 1.383 0 00-.681-.18c-2.643 0-3.664 1.582-3.664 4.204v5.125h-1.582V77.52h1.582l.34 1.16a3.444 3.444 0 013.104-1.34 2.037 2.037 0 01.9.18zM58.74 86.57c0 1.901-.58 5.326-4.885 5.326a6.859 6.859 0 01-4.685-1.742l1.022-1.162a5.168 5.168 0 003.663 1.462c2.563 0 3.304-1.942 3.304-3.924a4.057 4.057 0 01-3.384 1.66c-2.763 0-4.805-2.22-4.805-5.344 0-3.505 2.462-5.506 4.805-5.506a4.241 4.241 0 013.063 1.22l.321-1.04h1.581zm-1.481-3.724c0-2.283-1.281-4.064-3.525-4.064-2.182 0-3.182 2.02-3.182 4.064 0 1.981 1 3.904 3.182 3.904a3.711 3.711 0 003.525-3.904M66.072 88.111c-1.522 3.645-2.583 3.785-4.645 3.785v-1.442c2.002 0 2.423-.52 3.144-2.423L60.226 77.52h1.742l3.363 8.53 3.485-8.53h1.72z"/></svg>