<?xml version="1.0" encoding="utf-8"?>
<!-- Generator: Adobe Illustrator 23.0.3, SVG Export Plug-In . SVG Version: 6.00 Build 0)  -->
<svg version="1.1" xmlns="http://www.w3.org/2000/svg" xmlns:xlink="http://www.w3.org/1999/xlink" x="0px" y="0px"
	 viewBox="0 0 247.7 98.3" style="enable-background:new 0 0 247.7 98.3;" xml:space="preserve">
<style type="text/css">
	.st0{fill:#3C4999;}
</style>
<g id="Layer_1">
</g>
<g id="Layer_2">
</g>
<g id="Layer_3">
</g>
<g id="Layer_4">
</g>
<g id="Layer_5">
</g>
<g id="Layer_6">
</g>
<g id="Layer_7">
</g>
<g id="Layer_8">
	<g>
		<circle class="st0" cx="9.1" cy="38.1" r="9.1"/>
		<circle class="st0" cx="36.2" cy="14.5" r="14.5"/>
		<path class="st0" d="M80.8,66.3c0,11.1-6.6,18.5-15.8,18.5c-4.5,0-8-1.8-10.3-4.8v4.1h-0.1v14.2h-7.4V57.8l-1.8-9.2h7.1l1.1,5.6
			c2.3-3.8,6-6.3,11.4-6.3C74.8,47.8,80.8,55.7,80.8,66.3z M73.4,66.2c0-6.4-3.6-11.5-9.2-11.5c-5,0-8.9,4-9.5,10.2v3.3
			c0.6,6.3,4.5,9.7,9.2,9.7C69.5,77.9,73.4,73,73.4,66.2z"/>
		<path class="st0" d="M118.3,68.7H93.4c0.8,6,4.5,9.5,10.2,9.5c3.9,0,6.5-1.8,8-4.1l5.7,3.5c-2.5,4.3-7.9,7.1-14,7.1
			c-10.4,0-17.2-7.3-17.2-18.3c0-10.8,6.5-18.7,16.8-18.7C114.2,47.8,119.6,57,118.3,68.7z M111.5,63.2c0-4.3-2.8-8.9-8.6-8.9
			c-5.2,0-8.5,3.5-9.5,8.9H111.5z"/>
		<path class="st0" d="M146,54.9h-10.1v29.1h-7.5V54.9h-6.3v-6.4h6.3v-9.7l7.5-1.3v10.9H146V54.9z"/>
		<path class="st0" d="M148.8,66.3c0-10.5,7-18.5,17.5-18.5c10.5,0,17.5,8,17.5,18.5c0,10.4-7,18.5-17.5,18.5
			C155.8,84.8,148.8,76.8,148.8,66.3z M176.3,66.3c0-6.7-4.3-11.5-10-11.5c-5.7,0-10,4.8-10,11.5c0,6.6,4.3,11.5,10,11.5
			C172,77.8,176.3,72.9,176.3,66.3z"/>
		<path class="st0" d="M209.9,54.8l-11.4,7.1v22.2H191V57.8l-1.8-9.2h7.1l1.2,6.1l12.4-7.9V54.8z"/>
		<path class="st0" d="M212.7,66.3c0-10.5,7-18.5,17.5-18.5c10.5,0,17.5,8,17.5,18.5c0,10.4-7,18.5-17.5,18.5
			C219.7,84.8,212.7,76.8,212.7,66.3z M240.2,66.3c0-6.7-4.3-11.5-10-11.5c-5.7,0-10,4.8-10,11.5c0,6.6,4.3,11.5,10,11.5
			C236,77.8,240.2,72.9,240.2,66.3z"/>
	</g>
</g>
</svg>
