<?xml version="1.0" encoding="UTF-8"?>
<!-- Generator: Adobe Illustrator 26.5.0, SVG Export Plug-In . SVG Version: 6.00 Build 0)  -->
<svg version="1.1" id="Layer_1" xmlns="http://www.w3.org/2000/svg" xmlns:xlink="http://www.w3.org/1999/xlink" x="0px" y="0px" viewBox="0 0 220 84.1" style="enable-background:new 0 0 220 84.1;" xml:space="preserve">
<style type="text/css">
	.st0{fill:#FFFFFF;}
	.st1{fill:#00A19C;}
	.st2{fill:#3D3935;}
</style>
<g>
	<g>
		<path class="st0" d="M29.3,84.1c-5.3,0-10.5-1.4-15.1-4.2C5.3,74.5,0,65.1,0,54.8C0,49.6,1.4,44.5,4,40l0,0    c0.3-0.6,2.5-4.3,18.1-31.4c3.8-6.5,7.1-8.4,15.7-8.6h0.1h33.9L51.7,34.9l2.7,4.7c2.7,4.6,4.2,9.8,4.2,15.1    C58.6,70.9,45.4,84.1,29.3,84.1z"/>
		<path class="st0" d="M47.8,34.9L66.1,3.3H37.9C30.1,3.5,28,5.1,25,10.3c0,0-18.1,31.4-18.1,31.4C4.6,45.5,3.3,50,3.3,54.8    c0,9.5,5,17.7,12.6,22.3c3.9,2.3,8.5,3.7,13.4,3.7c14.3,0,26-11.6,26-26c0-4.9-1.4-9.5-3.7-13.4L47.8,34.9z"/>
		<g>
			<path class="st1" d="M43.7,54.8c0,8-6.5,14.4-14.4,14.4c-8,0-14.4-6.5-14.4-14.4c0-8,6.5-14.4,14.4-14.4     C37.3,40.4,43.7,46.8,43.7,54.8"/>
			<path class="st1" d="M47.8,34.9L66.1,3.3H37.9C30.1,3.5,28,5.1,25,10.3c0,0-18.1,31.4-18.1,31.4C4.6,45.5,3.3,50,3.3,54.8     c0,9.5,5,17.7,12.6,22.3c3.9,2.3,8.5,3.7,13.4,3.7c14.3,0,26-11.6,26-26c0-4.9-1.4-9.5-3.7-13.4L47.8,34.9z M38.1,10h16.5     L44,28.3L40.4,22l-6.7-11.6C34.6,10.1,36,10,38.1,10 M29.3,74.1c-4.7,0-9.1-1.7-12.5-4.5c-4.2-3.5-6.9-8.9-6.9-14.8     c0-3.6,1-6.9,2.7-9.8c0,0,16.6-28.8,16.7-28.9l6.5,11.2l0,0l0,0L46,45c0,0,0,0,0,0c1.7,2.9,2.7,6.2,2.7,9.8     C48.6,65.5,40,74.1,29.3,74.1"/>
		</g>
	</g>
	<g>
		<path class="st2" d="M138.8,39.4L138.8,39.4c0-4.1-3-6.5-7.6-6.5H124c-0.7,0-1.3,0.6-1.3,1.2v17.1h5.1v-4.6c0-0.3,0.3-0.6,0.6-0.6    h1.8l3.5,5.2h5.9l-4.2-6.1C137.5,44,138.8,42.1,138.8,39.4z M133.7,39.6c0,1.4-1.1,2.4-2.9,2.4h-3v-4c0-0.4,0.4-0.8,0.8-0.8h2.2    C132.7,37.1,133.7,38,133.7,39.6L133.7,39.6L133.7,39.6z"/>
		<path class="st2" d="M150.7,32.5c-5.6,0-9.9,4.3-9.9,9.5v0c0,5.3,4.2,9.5,9.8,9.5c5.6,0,9.9-4.3,9.9-9.5V42    C160.6,36.7,156.4,32.5,150.7,32.5 M155.4,42.1c0,2.6-1.8,4.9-4.7,4.9c-2.8,0-4.7-2.3-4.7-4.9V42c0-2.6,1.9-4.9,4.6-4.9    C153.5,37.1,155.4,39.4,155.4,42.1L155.4,42.1L155.4,42.1z"/>
		<path class="st2" d="M175.5,34v8.5l-7.5-9.7h-3.4c-0.7,0-1.3,0.6-1.3,1.3v17h5v-10l7.8,10h4.4V32.9h-3.7    C176.1,32.9,175.5,33.4,175.5,34"/>
		<path class="st2" d="M104.2,34.1v3.2h5.5v13.8h5.1V37.9c0-0.3,0.3-0.6,0.6-0.6h4.9v-4.5h-14.8C104.8,32.9,104.2,33.5,104.2,34.1"/>
		<path class="st2" d="M87.2,34.1v17h14.7v-4.3h-9.7v-2.2c0-0.3,0.3-0.7,0.6-0.7h7.9v-4h-8.6v-2.1c0-0.3,0.3-0.7,0.6-0.7h9.1v-4.3    H88.5C87.8,32.9,87.2,33.4,87.2,34.1"/>
		<path class="st2" d="M213.2,39.8c-2.5-0.6-3.2-0.9-3.2-1.8V38c0-0.7,0.6-1.2,1.8-1.2c1.1,0,2.3,0.3,3.5,0.9c0,0,0.3,0.1,0.4,0.2    c0.3,0.2,0.7,0.3,1.2,0.2c0.4-0.1,0.6-0.4,0.9-0.8l1.6-2.2c-2-1.6-4.4-2.4-7.5-2.4c-4.4,0-7.1,2.5-7.1,5.9v0.1    c0,3.8,3,4.9,6.9,5.8c2.5,0.6,3.1,1,3.1,1.7v0c0,0.8-0.7,1.3-2.1,1.3c-1.6,0-3.1-0.4-4.6-1.3c-0.4-0.2-0.9-0.5-1.6-0.3    c-0.3,0.1-0.5,0.2-0.7,0.5l-1.9,2.3c2.2,2,5.3,3,8.6,3c4.4,0,7.4-2.2,7.4-6v-0.1C220,42.1,217.4,40.7,213.2,39.8"/>
		<path class="st2" d="M188.2,51.2l0.9-2.3c0.1-0.4,0.4-0.7,0.8-0.8h6.5l1.3,3.1h5.4l-7.7-18.3h-4.2c-0.6,0.1-0.9,0.4-1.1,0.8    l-7.4,17.5L188.2,51.2L188.2,51.2z M193,38.9l2,5.2h-4.1L193,38.9z"/>
		<path class="st2" d="M74.1,51.2c0-1.4,0-4.4,0-4.6c0-0.2,0.2-0.5,0.4-0.6c0.1,0,0.2,0,0.3,0c0.7,0,1.3,0,2,0c1.4,0,2.7-0.1,4-0.6    c1.4-0.5,2.6-1.3,3.3-2.6c0.8-1.2,1-2.7,0.9-4.1c-0.1-1.1-0.4-2.1-1-3c-1.3-1.9-3.5-2.7-5.7-2.8c-0.3,0-0.6,0-0.9,0    c-0.9,0-1.7,0-2.6,0c-1.2,0-2.4,0-3.6,0c-0.9,0-2.3,0-2.3,1.2c0,0.6,0,1.2,0,1.8v15.3L74.1,51.2L74.1,51.2z M80,39.6    c0,1.4-1.1,2.4-2.9,2.4h-3v-4c0-0.4,0.4-0.8,0.8-0.8h2.2C78.9,37.1,80,38,80,39.6L80,39.6L80,39.6z"/>
	</g>
</g>
</svg>