<?xml version="1.0" encoding="UTF-8"?>
<svg width="153px" height="30px" viewBox="0 0 153 30" version="1.1" xmlns="http://www.w3.org/2000/svg" xmlns:xlink="http://www.w3.org/1999/xlink">
    <!-- Generator: sketchtool 64 (101010) - https://sketch.com -->
    <title>46D253E4-8BFD-4473-8A32-002930C96B74@2x</title>
    <desc>Created with sketchtool.</desc>
    <g id="Desk" stroke="none" stroke-width="1" fill="none" fill-rule="evenodd">
        <g id="100---Home-v1" transform="translate(-87.000000, -25.000000)">
            <g id="Components/Desk/Menu" transform="translate(58.000000, 0.000000)">
                <g id="Elements/Logo/Color" transform="translate(29.000000, 25.000000)">
                    <polygon id="Fill-1" fill="#FFCC31" points="0.00466666667 7.21093333 29.7673333 7.21093333 29.7673333 0.000933333333 0.00466666667 0.000933333333"></polygon>
                    <path d="M61.7088,21.8690667 L52.5241333,21.8690667 L55.6448,10.8870667 L64.6121333,10.8870667 L63.8828,13.4350667 L58.5274667,13.4350667 L58.0741333,15.0150667 L62.6174667,15.0150667 L61.8854667,17.5824 L57.3434667,17.5824 L56.8501333,19.3010667 L62.4388,19.3010667 L61.7088,21.8690667 Z M0.0048,29.6750667 L29.7661333,29.6750667 L29.7661333,10.8170667 L0.0048,10.8170667 L0.0048,29.6750667 Z M47.2914667,18.4324 L47.2914667,18.4324 C47.0928,18.4530667 46.8961333,18.4530667 46.6988,18.4530667 L44.8814667,18.4530667 L43.9141333,21.8690667 L40.2994667,21.8690667 L43.4388,10.8870667 L47.2888,10.8870667 L48.7314667,10.8870667 C51.8908,10.8870667 52.9981333,12.3284 52.3661333,14.5797333 C51.7334667,16.8124 50.0948,18.2544 47.2914667,18.4324 L47.2914667,18.4324 Z M47.2914667,13.4350667 L47.2914667,13.4350667 L46.3048,13.4350667 L45.6301333,15.8797333 L47.2888,15.8850667 L47.2888,15.8830667 C48.0401333,15.8444 48.6721333,15.4884 48.9288,14.6010667 C49.2061333,13.5737333 48.0988,13.4350667 47.3288,13.4350667 L47.2914667,13.4350667 Z M134.159467,18.1350667 L135.304133,18.1350667 L135.2648,14.1864 L134.159467,16.1210667 L133.032133,18.1350667 L134.159467,18.1350667 Z M134.159467,11.2424 L134.396133,10.8870667 L138.0688,10.8870667 L138.880133,21.8690667 L135.2848,21.8690667 L135.2848,20.4270667 L134.159467,20.4270667 L131.691467,20.4270667 L130.861467,21.8690667 L127.541467,21.8690667 L127.325467,21.8690667 L127.541467,21.5344 L134.159467,11.2424 Z M152.390133,14.0670667 C152.6668,12.1510667 151.719467,10.5904 148.676133,10.5904 C145.911467,10.5904 143.560133,11.7557333 142.909467,14.1064 C141.7048,18.2944 148.361467,17.1484 147.8868,18.8277333 C147.748133,19.3410667 147.057467,19.6370667 146.167467,19.6370667 C145.812133,19.6370667 145.457467,19.5384 145.2208,19.3610667 C144.964133,19.1624 144.825467,18.8857333 144.8648,18.4917333 L141.4088,18.4917333 C140.935467,20.4664 142.336133,22.1650667 145.240133,22.1650667 C148.261467,22.1650667 150.7508,20.9210667 151.461467,18.3737333 C152.608133,14.3830667 145.991467,15.3910667 146.464133,13.7510667 C146.5628,13.3564 146.977467,13.1184 147.787467,13.1184 C148.124133,13.1184 148.440133,13.1784 148.6568,13.3164 C148.874133,13.4544 149.011467,13.6917333 148.9528,14.0670667 L152.390133,14.0670667 Z M127.541467,14.2250667 C127.5828,14.1457333 127.601467,14.0870667 127.620133,14.0077333 C127.858133,13.1784 127.858133,12.5070667 127.541467,12.0130667 C127.067467,11.2424 125.863467,10.8870667 123.631467,10.8870667 L122.426133,10.8870667 L118.4368,10.8870667 L115.316133,21.8690667 L118.910133,21.8690667 L120.016133,18.0370667 L121.1028,18.0370667 C121.775467,18.0370667 122.189467,18.1170667 122.426133,18.2944 C122.8028,18.5710667 122.7428,19.0844 122.485467,19.9524 C122.465467,20.0324 122.446133,20.0924 122.426133,20.1510667 C122.189467,21.0190667 122.110133,21.6517333 122.131467,21.8690667 L122.426133,21.8690667 L125.783467,21.8690667 L125.863467,21.5344 C125.4488,21.5344 125.626133,21.0597333 126.040133,19.6177333 C126.6728,17.4050667 126.040133,17.1284 125.0128,16.6944 C126.3188,16.3584 127.1668,15.3910667 127.541467,14.2250667 L127.541467,14.2250667 Z M122.426133,15.6277333 C123.355467,15.5677333 123.927467,15.2717333 124.125467,14.5797333 C124.341467,13.8104 123.8288,13.4350667 123.0008,13.4350667 L122.426133,13.4350667 L121.320133,13.4350667 L120.6888,15.6277333 L122.110133,15.6277333 L122.426133,15.6277333 Z M108.778133,21.8497333 C111.266133,21.7110667 113.1028,20.8224 113.735467,18.5710667 C114.071467,17.3664 113.735467,16.3384 112.630133,16.0430667 C113.4588,15.6070667 114.427467,14.7777333 114.744133,13.6517333 C115.355467,11.4597333 113.556133,10.8870667 111.0888,10.8870667 L108.778133,10.8870667 L105.8148,10.8870667 L102.694133,21.8690667 L108.067467,21.8690667 C108.304133,21.8690667 108.540133,21.8690667 108.778133,21.8497333 L108.778133,21.8497333 Z M108.778133,13.4350667 L109.9628,13.4350667 C110.7328,13.4350667 111.423467,13.4544 111.188133,14.3230667 C111.0088,14.9550667 110.396133,15.2717333 109.6668,15.2717333 L108.778133,15.2717333 L108.185467,15.2717333 L108.6988,13.4350667 L108.778133,13.4350667 Z M108.778133,17.2864 C109.904133,17.2864 110.7328,17.3464 110.456133,18.2944 C110.2388,19.0844 109.586133,19.2824 108.778133,19.3010667 L108.600133,19.3010667 L107.0388,19.3010667 L107.612133,17.2864 L108.757467,17.2864 L108.778133,17.2864 Z M95.8988,19.3217333 C96.9654667,18.9070667 97.6774667,17.7610667 98.0728,16.3190667 C98.5061333,14.8170667 98.3488,13.2384 96.7494667,13.2770667 C96.4314667,13.2770667 96.1561333,13.3357333 95.8988,13.4350667 C94.7741333,13.8890667 94.0828,15.1924 93.7661333,16.3190667 C93.3514667,17.7224 93.2914667,19.4797333 95.0088,19.4797333 C95.3268,19.4797333 95.6221333,19.4204 95.8988,19.3217333 L95.8988,19.3217333 Z M95.8988,10.7690667 C96.4314667,10.6504 96.9861333,10.5904 97.5388,10.5904 C101.470133,10.5904 102.5168,13.4157333 101.686133,16.3190667 C100.798133,19.4204 98.5061333,21.3950667 95.8988,21.9877333 C95.3648,22.1064 94.8121333,22.1650667 94.2401333,22.1650667 C90.8028,22.1650667 89.1054667,20.0324 90.1514667,16.2784 C90.9801333,13.3964 93.1928,11.3610667 95.8988,10.7690667 L95.8988,10.7690667 Z M83.2374667,20.1510667 C83.2588,20.0924 83.2768,20.0324 83.2981333,19.9524 C83.5541333,19.0844 83.6148,18.5710667 83.2374667,18.2944 C83.0008,18.1170667 82.5861333,18.0370667 81.9141333,18.0370667 L80.8288,18.0370667 L79.7614667,21.8690667 L76.5621333,21.8690667 L76.1461333,21.8690667 L76.5621333,20.4270667 L79.2688,10.8870667 L83.2374667,10.8870667 L84.4428,10.8870667 C88.1174667,10.8870667 89.0254667,11.8744 88.4328,14.0077333 C88.0574667,15.2717333 87.2074667,16.3384 85.8254667,16.6944 C86.8528,17.1284 87.4848,17.4050667 86.8528,19.6177333 C86.4374667,21.0597333 86.2601333,21.5344 86.6948,21.5344 L86.5961333,21.8690667 L83.2374667,21.8690667 L82.9428,21.8690667 C82.9221333,21.6517333 83.0201333,21.0190667 83.2374667,20.1510667 L83.2374667,20.1510667 Z M83.2374667,15.6277333 C84.1668,15.5677333 84.7388,15.2717333 84.9368,14.5797333 C85.1541333,13.8104 84.6408,13.4350667 83.8114667,13.4350667 L83.2374667,13.4350667 L82.1328,13.4350667 L81.5001333,15.6277333 L82.9221333,15.6277333 L83.2374667,15.6277333 Z M76.5621333,12.3284 L76.9774667,10.8870667 L76.5621333,10.8870667 L66.8828,10.8870667 L66.0741333,13.7710667 L69.3121333,13.7710667 L67.0021333,21.8690667 L70.5974667,21.8690667 L72.9088,13.7710667 L76.1461333,13.7710667 L76.5621333,12.3284 Z" id="Fill-2" fill="#008C4F"></path>
                    <path d="M29.7686667,10.8150667 L29.7686667,7.2064 L0,7.2064 L0,10.8150667 L5.72933333,10.8150667 L2.55466667,21.7930667 L9.052,21.7930667 C11.866,21.7930667 12.356,21.1364 12.9266667,20.6577333 C13.6913333,20.0170667 14.0993333,18.4950667 13.7566667,17.4357333 C13.5133333,16.6864 12.8053333,16.2317333 12.728,16.2104 C13.6073333,15.8024 14.1186667,14.9077333 14.182,14.7757333 C14.5093333,14.0977333 14.7626667,12.8690667 13.95,11.8804 C13.276,11.0590667 11.9653333,10.8324 11.0146667,10.8150667 L17.9693333,10.8150667 L14.7846667,21.8150667 L18.0086667,21.8150667 L19.1866667,17.6444 L21.0273333,17.6444 C22.3646667,17.6444 22.244,18.4777333 22.278,18.8357333 L22.3813333,21.9030667 L25.3746667,21.9017333 C25.3746667,21.9017333 25.2393333,18.4604 25.2286667,18.2084 C25.188,17.3244 24.6026667,16.9257333 24.104,16.9257333 C25.0626667,16.6664 25.8946667,15.7970667 26.2273333,15.2377333 C26.6106667,14.5944 26.8993333,13.5704 26.5213333,12.5544 C25.9693333,11.0784 24.5506667,10.8324 23.5566667,10.8150667 L29.7686667,10.8150667 Z M20.474,13.0277333 L22.8186667,13.0277333 C23.9306667,13.0277333 23.9746667,13.7824 23.9746667,13.9977333 C23.9746667,14.5004 23.5326667,15.4870667 22.182,15.4870667 L19.7953333,15.4870667 C19.7953333,15.4870667 20.462,13.0877333 20.474,13.0277333 L20.474,13.0277333 Z M7.09466667,17.1590667 L9.23866667,17.1590667 C10.2893333,17.1590667 10.3493333,17.4437333 10.4953333,17.6890667 C10.6386667,17.9304 10.5726667,18.4444 10.4733333,18.6210667 C10.3466667,18.8430667 10.1353333,19.5317333 8.79133333,19.5317333 L6.40933333,19.5317333 C6.40933333,19.5317333 7.09333333,17.1624 7.09466667,17.1590667 L7.09466667,17.1590667 Z M8.26733333,13.0144 L10.7486667,13.0144 C11.2413333,13.0144 11.688,13.3310667 11.688,13.8517333 C11.688,14.5550667 11.1266667,15.0484 10.3493333,15.0484 L7.69466667,15.0484 L8.26733333,13.0144 Z" id="Fill-5" fill="#FFFFFF"></path>
                </g>
            </g>
        </g>
    </g>
</svg>