<svg id="Capa_1" data-name="Capa 1" xmlns="http://www.w3.org/2000/svg" xmlns:xlink="http://www.w3.org/1999/xlink" viewBox="0 0 147.95 57.79"><defs><style>.cls-1{fill:none;}.cls-2{fill:#fff;}.cls-3{clip-path:url(#clip-path);}.cls-4{fill:#e80201;}.cls-5{fill:#ff9702;}.cls-6{fill:#fff004;}.cls-7{fill:#008b2b;}.cls-8{fill:#0557ff;}.cls-9{fill:#810292;}</style><clipPath id="clip-path" transform="translate(0 0.01)"><polygon class="cls-1" points="126.91 57.79 147.94 0 145.59 0 124.56 57.79 126.91 57.79"/></clipPath></defs><path class="cls-2" d="M20.66,15.31V50.13h-9V15.31H0V7.66H33.59l-2.73,7.65ZM52.52,48.66a25.09,25.09,0,0,1-11.59,2.41c-10.19,0-15.61-7.31-15.61-16.41,0-9.61,6.11-16.74,15-16.74,9.17,0,14.08,6.49,14.08,16.68,0,1.34-.13,2.23-.13,2.68H33.66c-.13,2.29,1.78,7.07,8,7.07a19.45,19.45,0,0,0,10.53-2.9Zm-12-24.34c-3.88,0-6.3,2.92-6.94,6.81H46.47c0-1.72-.64-6.81-5.93-6.81m74.87,25.85-14-17.58,13.88-13.75h-9.93L94,30.3V5.74h-8.6V50.12H94V35.41l11.27,14.71ZM81.66,42A16.06,16.06,0,0,1,74.23,44c-5.74,0-8.54-4.21-8.54-9.68,0-4.46,3-9.43,8.79-9.43a12.56,12.56,0,0,1,6.57,1.82l.5-7a17.67,17.67,0,0,0-7.89-1.76C64.24,17.9,57,25,57,34.71,57,44,63.28,51,73.09,51a20.25,20.25,0,0,0,8.82-2Z" transform="translate(0 0.01)"/><g class="cls-3"><rect class="cls-4" x="123.47" width="24.47" height="9.63"/><rect class="cls-5" x="123.47" y="9.64" width="24.47" height="9.63"/><rect class="cls-6" x="123.47" y="19.27" width="24.47" height="9.63"/><rect class="cls-7" x="123.48" y="28.9" width="24.47" height="9.63"/><rect class="cls-8" x="123.48" y="38.53" width="24.47" height="9.63"/><rect class="cls-9" x="123.48" y="48.16" width="24.47" height="9.63"/></g></svg>